<?xml version="1.0" encoding="utf-8"?>
<!-- Generator: Adobe Illustrator 15.0.0, SVG Export Plug-In  -->
<!DOCTYPE svg PUBLIC "-//W3C//DTD SVG 1.1//EN" "http://www.w3.org/Graphics/SVG/1.1/DTD/svg11.dtd" [
	<!ENTITY ns_flows "http://ns.adobe.com/Flows/1.0/">
]>
<svg version="1.1"
	 xmlns="http://www.w3.org/2000/svg" xmlns:xlink="http://www.w3.org/1999/xlink" xmlns:a="http://ns.adobe.com/AdobeSVGViewerExtensions/3.0/"
	 x="0px" y="0px" width="32px" height="32px" viewBox="-0.53 -0.655 32 32" enable-background="new -0.53 -0.655 32 32"
	 xml:space="preserve">
<defs>
</defs>
<circle fill="#FFAA4C" cx="15.47" cy="15.471" r="15.47"/>
<path fill="#FFFFFF" d="M25.47,15.471v8c0,1.104-0.896,2-2,2h-16c-1.104,0-2-0.896-2-2v-8c-0.552,0-1-0.447-1-1v-3
	c0-1.104,0.896-2,2-2h3.17c-0.11-0.31-0.17-0.65-0.17-1c0-1.657,1.343-3,3-3c1,0,1.88,0.5,2.43,1.24v-0.01l0.57,0.77l0.57-0.77v0.01
	c0.55-0.74,1.43-1.24,2.43-1.24c1.656,0,3,1.343,3,3c0,0.35-0.061,0.69-0.17,1h3.17c1.104,0,2,0.896,2,2v3
	C26.47,15.023,26.023,15.471,25.47,15.471 M7.47,23.471h7v-8h-7V23.471 M23.47,23.471v-8h-7v8H23.47 M12.47,7.471
	c-0.552,0-1,0.448-1,1s0.448,1,1,1s1-0.448,1-1S13.022,7.471,12.47,7.471 M18.47,7.471c-0.553,0-1,0.448-1,1s0.447,1,1,1
	s1-0.448,1-1S19.023,7.471,18.47,7.471 M6.47,11.471v2h8v-2H6.47 M16.47,11.471v2h8v-2H16.47z"/>
</svg>
