<svg xmlns="http://www.w3.org/2000/svg" viewBox="0 0 380.45 692.78"><defs><style>.cls-1{fill:#3b86c7;}.cls-2{fill:#fbb040;}.cls-3{fill:#ae206a;}.cls-4{fill:#262262;}</style></defs><title>owl</title><g id="illustration"><g id="color_4" data-name="color 4"><path class="cls-1" d="M39.24,191.48s2.27,2.27,4.72,8.73h0a14.87,14.87,0,0,0,4.73,7.62,8.27,8.27,0,0,0,.93.61c9.54-87.36,41.16-123.88,63.1-138.89-30.2,17-49.15,51-49.15,51s1-9,6.3-21.35c-19.45,32.83-27.51,69.28-32.29,93.83A7.52,7.52,0,0,1,39.24,191.48Z"/><path class="cls-1" d="M342.34,190.91a37.9,37.9,0,0,0,37,46.2h4.41a37.92,37.92,0,0,0,18.15-71.22A40.82,40.82,0,0,1,412.68,180c9.19,19.11,6.43,55.14-33.28,52.66C340.29,230.17,342.27,192.05,342.34,190.91Z"/><path class="cls-1" d="M377.14,636.74c0-13.36-17.82-31.18-49.6-50.6,1.77,1.48,3.61,3.08,5.55,4.83,16.56,15,25.18,27.54,29.67,36.54,5.07,6.94,8.06,13.55,8.9,19.81,2.58,19.15.13,173,0,179.54l-.13,8.11L162.7,614.52c0,2.5,0,5.07,0,7.69l214.43,233Z"/><path class="cls-1" d="M165.13,455.47a62.92,62.92,0,0,0,3.54,8C167.24,460.37,166.05,457.67,165.13,455.47Z"/><path class="cls-1" d="M387.26,614.19s4-8.17,15.54-19.72A131.88,131.88,0,0,1,450,552.28C433.6,541.36,447,526.54,447,526.54a13.19,13.19,0,0,0,.79,8.17c4.6,6.88,13.11,7.62,19.31,5.3,5.23-2,10.81-7,9.33-14.59.2.16.37.32.55.48a12.94,12.94,0,0,0-2.29-4s14.28,4.3,12.49,15.28c15.68-5,24-6.83,36.35-20.32a26.63,26.63,0,0,1-12.25-5.58s30.11,5.23,43.27-19.64a83.85,83.85,0,0,0,6.75-33.57c4.1,4.81,5.1,10.94,4.73,16.76,2.08-1.12,4-2.29,5.86-3.48,14.1-9.16,21.07-19.61,21.07-19.61h0l4.42-2a36.42,36.42,0,0,0,.7-4.71,11.87,11.87,0,0,1-8.49-1.61s.39-.19,1-.55l-.07,0s39.07-34,31.88-89.62l.07.12a.56.56,0,0,1,0-.12c5.91,1.93,8.69,7.48,10,12.38a81.46,81.46,0,0,1-.2,32.14c0-.06,0-.14.07-.21,3.24-15.79,10.88-60.09,5.28-105-7-56-24.59-105.75-24.59-105.75l.06.1c-8.16-18.19-18.11-34.76-29.92-48.48l-5.83,8.73a97.81,97.81,0,0,1,15.8,21.46c1.66,2.58,13.4,21.31,21.61,49.68a194.23,194.23,0,0,1,11.38,58.17c2,6.68,8,32.34-6.23,71.55-.24.66-.48,1.33-.73,2q-2.22,5.92-5.08,12.25A66.94,66.94,0,0,1,609.86,405c-2.9,13.09-10.2,18.49-10.2,18.49s10.69-25.15-10.29-52.27A34.58,34.58,0,0,1,579.25,377c32.26-41.22,43.48-88.19,33.35-139.59-.66-3.35-1.4-6.61-2.19-9.77.34,3.67.58,7.38.7,11.13,1.29,41.23-11.68,80.17-35.59,106.82A135.5,135.5,0,0,1,488,390.25a131.33,131.33,0,0,1-13.22.66c-18.08,0-35-3.71-46.93-10.3,13.5,15.34,42.47,22.12,50.86,23.8A78.43,78.43,0,0,0,490,403c-7,7.27-17.24,8.27-25.1,7.68-23.69-2.66-40.49-14.85-47.77-21.17a70,70,0,0,0,1.71,13.81c8.34,15.85,24.8,16.15,25.49,16.16h3.31v7.92c15.3,16.13,26,9.31,26,9.31l-.08.22c2.38-3.22,3.64-7.74,1.44-13.43l.06.07,0-.07a9.77,9.77,0,0,1,8.34,5.37c6.42,1.78,34.51,8.2,32.12-16.65v0a28.6,28.6,0,0,0-.93-2.9,12.26,12.26,0,0,1,7.42,8h0l0,.06c8.15,2.26,12.17-.78,12.17-.78s34.6,17.24,34.68-14.53h0a40.7,40.7,0,0,0-1.17-5.47c10.46,3.56,7.24,17.72,7,18.61a25.7,25.7,0,0,1-1.87,4.63c-.94,21.59-13.66,30.35-28.2,31.36-16,1.1-29.78,1.79-32.12,26.46-1.54,16.22-13.73,23.14-21.91,26a23,23,0,0,1-6.54,2.85c-4.39,1.12-9.49.9-15.31-1.54a14.78,14.78,0,0,1-1.37-.58l0,0h0c-3.3-1.67-5.82-4.76-6.23-9.86a13.47,13.47,0,0,0,2.78,2.38c6.29.48,26.68.47,23.32-20.38a21.86,21.86,0,0,1-4.91-.74c-2.94-1.07-5.91-3.75-5.54-10.26l.26.19c1,.2,22,4.13,23-16.13-8.77,5.61-15,2-15,2S479.72,467,459,468.36s-32.81,7.26-48,16.55c-14.11,8.63-21.76,14.44-22.76,15.21-1.71,2.49-3.36,5-4.92,7.62h-5.68c-1.55-2.59-3.19-5.1-4.88-7.58-.7-.54-8.38-6.41-22.82-15.25-15.17-9.29-27.21-15.17-48-16.55s-26.19-16.82-26.19-16.82-6.21,3.61-15-2c1.1,20.58,22.75,16.19,23.08,16.13l.24-.19c.37,6.51-2.6,9.19-5.54,10.26a21.94,21.94,0,0,1-4.94.74c-3.35,20.88,17.1,20.86,23.36,20.38a14,14,0,0,0,2.78-2.38c-.42,5.1-2.94,8.19-6.23,9.86h0l-.05,0a12.79,12.79,0,0,1-1.37.58c-5.82,2.44-10.92,2.66-15.31,1.54a23.08,23.08,0,0,1-6.51-2.83c-8.18-2.84-20.41-9.76-22-26C246,453,232.17,452.28,216.18,451.18c-14.55-1-27.28-9.78-28.2-31.41a26.2,26.2,0,0,1-1.85-4.58c-.21-.89-3.43-15.05,7-18.61a38.67,38.67,0,0,0-1.19,5.55c.15,31.64,34.68,14.44,34.68,14.44s4,3.05,12.2.77c0,0,0,0,0,0h0a12.26,12.26,0,0,1,7.42-8,30.55,30.55,0,0,0-.94,3c-2.33,24.79,25.79,18.33,32.14,16.56a9.78,9.78,0,0,1,8.34-5.36c-2.21,5.74-.91,10.28,1.51,13.5a2.27,2.27,0,0,1-.11-.29s10.7,6.82,26-9.31v-7.92h3.3c.7,0,17.15-.31,25.49-16.16a69.23,69.23,0,0,0,1.71-13.81c-7.28,6.32-24.08,18.51-47.76,21.17-7.87.59-18.1-.41-25.11-7.68a78.34,78.34,0,0,0,11.32,1.42c8.4-1.69,37.32-8.46,50.84-23.77-12,6.57-28.83,10.27-46.89,10.27a131.13,131.13,0,0,1-13.21-.66,135.5,135.5,0,0,1-87.55-44.67c-23.9-26.65-36.87-65.59-35.58-106.82.11-3.75.35-7.46.69-11.13-.79,3.16-1.53,6.42-2.19,9.77-10.13,51.4,1.1,98.37,33.36,139.59a34.38,34.38,0,0,1-10.14-5.79c-21,27.13-10.3,52.29-10.3,52.29s-7.34-5.43-10.23-18.6a66.93,66.93,0,0,1-4.18-42.67c-1.91-4.21-3.59-8.3-5.07-12.25-.26-.67-.5-1.34-.74-2-14.11-39-8.32-64.62-6.26-71.45a194.18,194.18,0,0,1,11.51-58.61v0c8.2-28.19,19.85-46.79,21.51-49.36a97.52,97.52,0,0,1,15.81-21.46l-5.83-8.73c-11.8,13.7-21.74,30.23-29.89,48.38,0,0-17.6,49.72-24.59,105.75-5.58,44.76,2,88.89,5.24,104.85l.14.39a81.26,81.26,0,0,1-.21-32.14c1.32-4.9,4.1-10.45,10-12.38-7.18,55.58,31.88,89.62,31.88,89.62l1,.53A11.88,11.88,0,0,1,162.8,445a36.53,36.53,0,0,0,.7,4.7l4.41,2,.06,0s7,10.45,21.07,19.61c1.83,1.19,3.79,2.36,5.86,3.48-.37-5.82.63-11.95,4.74-16.76a83.85,83.85,0,0,0,6.74,33.57c13.17,24.87,43.27,19.64,43.27,19.64a26.52,26.52,0,0,1-12.27,5.58c12.35,13.49,20.67,15.29,36.35,20.31-1.79-11,12.48-15.27,12.48-15.27a13,13,0,0,0-2.29,4c.19-.17.37-.34.58-.51-1.48,7.63,4.1,12.63,9.33,14.59,6.16,2.31,14.61,1.59,19.23-5.17a13.2,13.2,0,0,0,.85-8.3s13.37,14.82-3.06,25.74A131.69,131.69,0,0,1,358,594.4c11.61,11.59,15.62,19.79,15.62,19.79h0a53.75,53.75,0,0,1,6.82,10.1,54.24,54.24,0,0,1,6.82-10.1ZM543,393.14c-31.84,13.64-58,3-58,3h0a19.93,19.93,0,0,1-4-1.38s25.81,1.18,55.58-13.25c25-12.13,39.08-27.83,42.91-32.52l1.06-1.38v0l0,0,0,.11C580.18,349.77,573.79,380,543,393.14Zm-26,83.1h0c10.68.52,24.77-5.13,25.65-22.16l0,.05s0,0,0-.05c6.36,2.37,7.62,7.95,6.51,12.79a25.07,25.07,0,0,1-1.56,4.1c-.09.17-.18.34-.26.51a25.92,25.92,0,0,1-11.79,11.44c-2.51,1.08-12.14,4.28-18.54-6.62l-.06-.06ZM180.28,347.6l.49.64c2.71,3.45,16.88,20.37,43.5,33.26,29.78,14.43,55.58,13.25,55.58,13.25a19.62,19.62,0,0,1-4,1.38s-26.2,10.65-58-3S180.28,347.6,180.28,347.6Zm45.06,135.32a26.3,26.3,0,0,1-4.41-2.69,25.77,25.77,0,0,1-7.38-8.75c-.08-.17-.17-.34-.26-.51a25.07,25.07,0,0,1-1.56-4.1c-1.1-4.84.15-10.42,6.51-12.79.88,17,15,22.69,25.67,22.16C237.52,487.22,227.86,484,225.34,482.92Z"/><path class="cls-1" d="M156.08,520.31h0c.34-.59.67-1.14,1-1.66.64-1,1.24-1.95,1.81-2.75s1.08-1.49,1.56-2.08c.12-.15.24-.27.35-.41,2.42-2.84,3.7-3.14,3.7-3.14h0s.22.64.58,1.63h0c14.26,24.41,42.46,25.58,53.21,25.07-19.25-13.31-40.58-37.57-53.44-61.4-2.18,30.08-21.39,58.76-30.43,70.72A102.41,102.41,0,0,0,156.08,520.31Z"/><path class="cls-1" d="M82.73,401.3q-1.41,4.88-3,9.43,1.26-2,2.39-3.94l.94-6.89C83,400.37,82.86,400.84,82.73,401.3Z"/><path class="cls-1" d="M110.51,233.3v0Z"/><path class="cls-1" d="M91.66,427.11h0l0-.06,1.14-1.84c.32-.49.64-1,1-1.44.65-.94,1.3-1.83,1.94-2.67.33-.42.65-.83,1-1.22a59.25,59.25,0,0,1,7.15-7.52h0a13.35,13.35,0,0,1,.29,4c0,.52,0,1.12-.07,1.77h0c-.61,11.86,4.83,19.94,12,25.44-2.25-6.35-2.67-14.44.3-24.7a39.55,39.55,0,0,1,.31-6.2,33.44,33.44,0,0,0,5.57,8.07c-14.27-42.12-9.8-74.87-6.6-88.8a385.34,385.34,0,0,1,10.35-89.83,340.41,340.41,0,0,1,13.25-43.18v0h0c8.44-21.91,20.21-44.64,36.51-63.36l-.35-.53c-58.34,44.54-68.85,199.91-68.85,199.91s-1.48-20.43-.46-49.55c-2.49,26.07-5.93,56.79-10,79.38-1.93,10.64-3.73,18.88-5.36,25.28,3.5-8.26,3.82-12.19,3.82-12.19s11.68,40.47-45.32,83.37h0a72,72,0,0,1-7.63,5.89C63.12,466.45,81.35,443.48,91.66,427.11Z"/><path class="cls-1" d="M31.67,333.66c14.47-7.67,23.21-28.84,27.49-42.39,2.32-8.12,6.66-11.3,6.66-11.3s1.63,5.43,1.51,15.08v.07c-.22,9.06.91,20.5,6.7,28.6a24,24,0,0,0,4.26,4.54c9.78-108.73,22-171.33,38.45-196.81a139.61,139.61,0,0,1,10.48-14.25C85.41,160,77.87,235.28,77.87,235.28A245.84,245.84,0,0,1,83,167.87a249,249,0,0,0-6.81,25.87c-9.5,45.72-12.56,65.84-15.38,77.57a84.48,84.48,0,0,0,5.77-14,81.2,81.2,0,0,1-3.07,16.26,101.81,101.81,0,0,1-4.24,12A92.82,92.82,0,0,1,34,320.21h0a67.2,67.2,0,0,1-17.6,16A23.56,23.56,0,0,0,31.67,333.66Z"/><path class="cls-1" d="M211,49.53H314V28.07H211Zm96.83-15.8V45.17H215.35V33.73Z"/><polygon class="cls-1" points="115.84 33.73 197.84 33.73 197.84 45.17 123.48 45.17 126.38 49.53 204.42 49.53 204.42 28.07 112.06 28.07 115.84 33.73"/><path class="cls-1" d="M377.14,73.71H267.19V95.55l110-1ZM368.42,90H275.91V78.59h92.51Z"/><polygon class="cls-1" points="147.53 81.2 147.53 73.71 142.53 73.71 147.53 81.2"/><path class="cls-1" d="M260.57,95.61V73.71H154.14v17.4l3.65,5.47Zm-99.11-17H254V90h-92.5Z"/><path class="cls-1" d="M320.59,138.39a129.9,129.9,0,0,1,25-12.15h-25Z"/><path class="cls-1" d="M258,140.5H216V129.06h50.09a16.5,16.5,0,0,1,1.6-.87,19.65,19.65,0,0,1,18.34.87h22.48V140.5H294.84a13,13,0,0,1-.21,6h14.2q2.49-1.9,5.14-3.78V126.24H211v20.3h45.52A38.69,38.69,0,0,1,258,140.5Z"/><polygon class="cls-1" points="179.47 129.06 199.36 129.06 199.36 140.07 186.82 140.07 191.14 146.54 204.42 146.54 204.42 126.23 177.59 126.23 179.47 129.06"/><path class="cls-1" d="M211.8,177.49h42.74v11.44h-35.1l5.07,7.61h36.06V183a116.63,116.63,0,0,1-3.19-13.3H206.57Z"/><path class="cls-1" d="M258.61,247.61h38.62c-2-2.23-4-4.44-5.72-6.6H254.2Z"/><path class="cls-1" d="M246.56,229.56H283c-1.87-2.73-3.57-5.39-5.1-7.92H241.27Z"/><path class="cls-1" d="M288.58,292.51h88.56v-2.87q-6.19-.72-12-2H285.34Z"/><path class="cls-1" d="M277.7,276.21h56.11a128.69,128.69,0,0,1-11.79-7.1H273Z"/><polygon class="cls-1" points="313.85 330.37 313.91 313.59 302.65 313.59 313.85 330.37"/><polygon class="cls-1" points="340.8 370.75 344.12 375.72 377.14 375.72 377.14 353.42 329.24 353.42 333.16 359.3 372.24 359.3 372.24 370.75 340.8 370.75"/><path class="cls-1" d="M260,647.63c-4.69,19.3-32.95-5-32.95-5s19.05,27,32.13,44.75c6.87,7.33,12.87,13.8,17.51,18.82A3.65,3.65,0,0,0,283,704l5.63-62.22c-.81-.85-1.86-1.92-3.12-3.19l-5.38,63.87s-8.41-11.86-7.86-16c.31-2.32,2.88-31.27,5-55.92-5.91-5.6-13.49-12.45-22.14-19.51C258.47,619.19,263.26,634.3,260,647.63Z"/><path class="cls-1" d="M253.28,605.17c9.48,7.5,17.85,15,24.43,21.16,1.49-17,2.7-30.86,2.7-30.86l8.15,7.22-2.66,31.57c1.18,1.18,2.23,2.25,3.14,3.18l3.48-38.39a193.68,193.68,0,0,0-23.84-18.44C275.11,599.43,257.11,604.35,253.28,605.17Z"/><path class="cls-1" d="M380.43,28.07H320.59V49.53H440.31V28.07H380.43Zm3.33,5.66h51.41V45.17H325.73V33.73h58Z"/><path class="cls-1" d="M380.43,313.59h-59.9l-.09,24.34h120l-.08-24.34H380.43Zm3.33,8.27h50V333.3H327.17V321.86h56.59Z"/><polygon class="cls-1" points="380.43 403.29 362.53 403.29 380.45 430.14 398.38 403.29 380.45 403.29 380.43 403.29"/></g><g id="color_3" data-name="color 3"><path class="cls-2" d="M203,257.86c13.18,14.87,34.75,16.85,58.18,5.53l-3.48-5.21c-16,10.88-28.84,3.29-28.84,3.29s7.36-2.47,9.75-11.85S225.19,208.08,212.69,213s-12.34,30.52-12.34,30.52S188.8,214,209,185.25l-2.79-4.18C185.64,213.3,189.5,242.62,203,257.86Z"/><polygon class="cls-2" points="313.91 313.59 313.96 299.13 293 299.13 302.65 313.59 313.91 313.59"/><path class="cls-2" d="M320.59,101.66v24.58h25a117,117,0,0,1,33.58-6.76h4.75a116.68,116.68,0,0,1,33.59,6.76h22.79V101.66l-59.86-.56Z"/><rect class="cls-2" x="211.03" y="6.62" width="102.94" height="21.45"/><polygon class="cls-2" points="204.42 28.07 204.42 6.62 97.74 6.62 112.06 28.07 204.42 28.07"/><rect class="cls-2" x="267.19" y="56.14" width="109.95" height="17.57"/><polygon class="cls-2" points="313.97 101.72 211.03 102.69 211.03 126.23 313.97 126.23 313.97 101.72"/><path class="cls-2" d="M277.86,221.64a160.86,160.86,0,0,1-9.68-18.49H228.93l12.34,18.49Z"/><path class="cls-2" d="M322,269.11a138.22,138.22,0,0,1-18.34-14.88H267.19v6.24l5.77,8.64Z"/><path class="cls-2" d="M416.9,418.26l1.39,8L379,457.52l-36.68-29.64A96.62,96.62,0,0,0,348,407a74.86,74.86,0,0,1-3.58,10.54c-2.7,5.19-7.05,10.28-13.78,10.49a48.77,48.77,0,0,0,5.32-8.22,38.81,38.81,0,0,1-16.08,6v.5a111.3,111.3,0,0,1,29.74,18.33c3.69,3.27,11.65,11.48,11.73,21.47-.17-.23-16.35-21.5-41.47-32.62v5.17c7.36,5.06,39.36,28.21,60.6,61.13,21.24-32.92,53.24-56.07,60.6-61.13V433.5c-25.12,11.12-41.3,32.39-41.47,32.62.09-10,8-18.2,11.74-21.47a111.23,111.23,0,0,1,29.73-18.33v-.5a38.73,38.73,0,0,1-16.07-6,48.42,48.42,0,0,0,5.31,8.22C423.87,427.83,419.62,423.19,416.9,418.26Z"/><polygon class="cls-2" points="377.14 344.54 323.31 344.54 329.24 353.42 377.14 353.42 377.14 344.54"/><path class="cls-2" d="M101.81,612.36H88.66V589H101.8c0-6,0-11.89,0-17.51H88.66V548.21h13.11c0-8.25,0-15.32,0-20.67A7.72,7.72,0,0,0,94,519.83h0a7.72,7.72,0,0,0-7.71,7.73c.06,39,.2,168.25-.26,192.3-.19,10-5.74,13.7-10.87,13.83-5.76.07-11.91-4.24-12.59-14.21-.52-7.75-.86-17.09-1.08-26.56h-14V669.6H61.19c0-6,0-11.37,0-15.75a7.74,7.74,0,0,0-7.63-7.74h-.09a7.72,7.72,0,0,0-7.73,7.69c0,16.19.09,46.38,1.47,66.73,1.34,19.65,15.32,28.6,27.74,28.6h.63c12.61-.31,25.57-10.35,25.93-29C101.75,706.12,101.81,658.2,101.81,612.36Z"/><path class="cls-2" d="M161.44,202.75c-11.51,44.71-4.41,101.31,28.87,138.41,46.5,51.85,117.27,49.62,143.61,31.19l-1.28-1.91c-34.75,21.3-83,5.28-83,5.28s44.62,10.27,79.19-11L323,356a117.64,117.64,0,0,1-30.27,4,115.54,115.54,0,0,1-91.94-45.57c-29.95-39.59-29.94-92.43-.13-141.71l-9-13.44c-35.78,34.61-31.76,100.27-31.76,100.27S154.93,234.46,161.44,202.75Zm13.2,56.06s3.86,40.81,36,74.49,87.49,29.78,87.49,29.78-48.71,10.8-88.41-22.64S174.64,258.81,174.64,258.81Z"/><polygon class="cls-2" points="383.76 382.34 380.45 382.34 380.45 382.34 377.14 382.34 348.54 382.34 362.53 403.29 380.43 403.29 380.45 403.29 398.38 403.29 412.36 382.34 383.76 382.34"/><polygon class="cls-2" points="204.42 126.23 204.42 102.75 162.18 103.15 177.59 126.23 204.42 126.23"/><polygon class="cls-2" points="383.76 299.13 380.45 299.13 380.45 299.13 377.14 299.13 320.58 299.13 320.53 313.59 380.43 313.59 380.45 313.59 440.38 313.59 440.33 299.13 383.76 299.13"/><path class="cls-2" d="M289,164.66c1.82-1.95,3.73-3.93,5.77-5.92,1.88-1.82,3.9-3.69,6-5.58H290.59c-.18.17-.34.34-.52.5-4.91,4.37-9.64,5-13.38,3.94C280.46,161.34,285.58,163.53,289,164.66Z"/><path class="cls-2" d="M287.09,138.77a13.43,13.43,0,0,0-16.58-4.57c-2.7,1.25-4.76,3.91-6.13,7.93-3.21,9.41-2.38,26.67,5.31,47.18,1-1.59,2.27-3.46,3.74-5.55,1.11-1.59,2.37-3.31,3.74-5.12-12.28-11-12.63-34-4.26-37.93,7.48-3.47,14.23,2.26,12.63,8.12l.13-.11C290,144.83,288.43,140.82,287.09,138.77Z"/><path class="cls-2" d="M257.38,169.66a81.77,81.77,0,0,1-1.4-16.5H195.56l11,16.5Z"/><polygon class="cls-2" points="142.53 73.71 147.53 73.71 147.53 56.14 130.8 56.14 142.53 73.71"/><path class="cls-2" d="M359.48,195.66a12,12,0,1,0-12-11.95A12,12,0,0,0,359.48,195.66Z"/><rect class="cls-2" x="154.14" y="56.14" width="106.43" height="17.57"/><path class="cls-2" d="M55.07,238.68c-5.3,2.5-24.28,10.16-43.47,2.14,7.19,4.93,22.88,12.16,43,.59C54.76,240.5,54.92,239.59,55.07,238.68Z"/><polygon class="cls-2" points="380.43 28.07 380.45 28.07 440.31 28.07 440.31 6.62 384.68 6.62 380.45 6.62 380.45 6.62 375.76 6.62 320.59 6.62 320.59 28.07 380.43 28.07"/><path class="cls-2" d="M165.33,574.21c-.85,0-1.67,0-2.49,0,0,3.39-.07,9.14-.1,16.58,26.39,22.85,68.65,67,96.46,96.62-13.08-17.79-32.13-44.75-32.13-44.75s28.26,24.31,32.95,5c3.24-13.33-1.55-28.44-4.82-36.51-19.75-16.11-45.1-33.31-68.94-39.2-.72.16-1.43.32-2.14.46,19.37,7.88,37.58,20.24,37.58,20.24s-29-6.62-25.79,4.69,24,39.7,24,39.7L167.38,587.8V574.19Z"/><path class="cls-2" d="M86.15,352.67s-41,12.73-67.68-9.53a83.61,83.61,0,0,0,14.08,9.93c17.55,9.73,35.4,10.73,53.06,3C85.79,355,86,353.82,86.15,352.67Z"/><path class="cls-2" d="M84,480.4c-25,.07-41.54-6.63-41.59-6.65a65.65,65.65,0,0,0,20.16,8.58c21.59,5.27,47.1.75,74.46-13.06l-.28,0C128.47,472.25,104.39,480.35,84,480.4Z"/><path class="cls-2" d="M160.25,567.46c20.68,1.08,38.78-4.06,54.1-15.3A160.46,160.46,0,0,1,170.55,563c-26.71,2.43-43.46-2.51-44.17-2.73A115.91,115.91,0,0,0,160.25,567.46Z"/><path class="cls-2" d="M192.59,570.25c21.27,6.59,42.94,20.85,60.69,34.92,3.83-.82,21.83-5.74,15.4-24.56a293.19,293.19,0,0,0-47.37-25.53c-.8.64-1.6,1.26-2.41,1.86,14.12,5.46,34.5,17.27,34.5,17.27s-19.16-8.88-20.68-3.78,8,18.61,8,18.61-19.82-13.57-41.9-20.95C196.74,568.91,194.66,569.62,192.59,570.25Z"/><path class="cls-2" d="M226.66,416.57s-34.53,17.2-34.68-14.44c-1.33,9.46,1.45,17.13,8,21.51a21.09,21.09,0,0,0,24.33-.83,11.08,11.08,0,0,1-6.51,8.79,54.84,54.84,0,0,0,12.53-2.31c2.28-.69,4.28-1.44,5.91-2.11l.71-.3a28.44,28.44,0,0,1,1.9-9.54C230.69,419.62,226.66,416.57,226.66,416.57Z"/><path class="cls-2" d="M245.35,412.29c-3,11,1.56,20.15,7.54,24.21,7,4.73,15.67,3.52,23.51-3.16,0-.74.1-1.47.2-2.21a11.57,11.57,0,0,1,.89-2.28C271.14,430.62,243,437.08,245.35,412.29Z"/><path class="cls-2" d="M285.83,423.49c-4.8,9.13-3.41,20.21,3.16,25.22,6.34,4.84,15.85,2.78,25.89-5.42l-.15-.1-1.49-1v-.27c-19.3,9.18-25.08-2.9-25.9-4.95C284.92,433.77,283.62,429.23,285.83,423.49Z"/><path class="cls-2" d="M217.83,393.14c31.85,13.64,58,3,58,3-6.82,1.75-22.59,3.49-48.49-6.35-36-13.69-47.11-42.18-47.11-42.18S186,379.49,217.83,393.14Z"/><path class="cls-2" d="M180.28,347.6l.49.64Z"/><path class="cls-2" d="M134.74,276.52c.37-1.21.62-1.84.62-1.84s-1.78,41.51,18.47,69.94a1.74,1.74,0,0,0,.1-.19c-18.91-41-17.7-80.2-12.07-108.55,1.25-6.34,2.75-12.33,4.39-17.95v0A194.18,194.18,0,0,0,134.74,276.52Z"/><path class="cls-2" d="M138.44,353.23c-8.75,26.41-5.94,49.55,8.36,68.8a78.11,78.11,0,0,0,23.52,20.82S131.26,408.81,138.44,353.23Z"/><path class="cls-2" d="M218.24,454.08A18.73,18.73,0,0,0,224.93,475c4.65,3.54,12.08,5.73,19,1.28C233.23,476.77,219.12,471.12,218.24,454.08Z"/><path class="cls-2" d="M260.75,449.54a29.53,29.53,0,0,1-3.82-2.94c-2.25,9.64,1.91,16.81,6.69,20.23,6.14,4.41,14,3.94,20.21-1.16C283.5,465.73,261.85,470.12,260.75,449.54Z"/><path class="cls-2" d="M273.59,476.48l-.76,0a21.86,21.86,0,0,1-4.11-.41c-1.54,9.2,1.76,16.88,9.19,20.93,6.29,3.43,13.85,3.22,19-.17C290.69,497.34,270.24,497.36,273.59,476.48Z"/><path class="cls-2" d="M159.31,443.61c-.51-.37-1-.77-1.57-1.18h0q-.27,2.19-.45,4.26c6.28,32.2,43.34,77.71,70.8,92.48a15.64,15.64,0,0,0,1.51-1.31c1-1.16,2-2.37,2.93-3.59l-1.22-1c-31.6-11.43-52.94-49.06-62.64-69.85a62.92,62.92,0,0,1-3.54-8c-1.6-3.85-2.42-6.15-2.42-6.15l0,0,.74.34a36.53,36.53,0,0,1-.7-4.7A11.12,11.12,0,0,1,159.31,443.61Z"/><path class="cls-2" d="M123.26,292.51c7-56,24.59-105.73,24.59-105.75C123.39,241.21,115,310.21,120.68,361c1.59,14.19,4.25,26.42,7.82,36.35C125.23,381.4,117.68,337.27,123.26,292.51Z"/><path class="cls-2" d="M139.31,198.93v0h0Z"/><path class="cls-2" d="M145.74,115.63l0,0h0Z"/><path class="cls-2" d="M96.15,364.74c4.09-22.59,7.53-53.31,10-79.38a521.8,521.8,0,0,1,4.34-52.06v-.05c5.77-42.15,18.21-87.83,44.22-116.64-39.1,31-46.86,103.78-54.38,174.37-4,37.84-8.2,76.94-17.24,108.92l-.94,6.89A143.38,143.38,0,0,0,90.79,390C92.42,383.62,94.22,375.38,96.15,364.74Z"/><path class="cls-2" d="M83,167.87C89.89,136.41,104.7,100.59,136.1,76l-.18-.26c-52.47,33.51-62.76,95-71.85,149.44-3.89,23.31-7.7,46-14.59,65.4a170,170,0,0,0,10.14-16.85L60,273l.84-1.67c2.82-11.73,5.88-31.85,15.38-77.57A249,249,0,0,1,83,167.87Z"/><path class="cls-2" d="M117,47.45l-.12-.18c-55.54,25-69.28,81.54-80.35,127.09-4.95,20.38-9.45,38.85-16.89,52.44,7.1-7.58,11.39-17.66,13.81-25.17h0c0-.06,0-.11,0-.16q.3-.9.54-1.74a21.1,21.1,0,0,1,3.51-6.68c4.78-24.55,12.84-61,32.29-93.83C76.56,83.52,90.09,62.39,117,47.45Z"/><path class="cls-2" d="M116.13,443.57a55.25,55.25,0,0,0,17,8.37c-14.15-9.38-16.59-24.59-16.74-33.07C113.46,429.13,113.88,437.22,116.13,443.57Z"/><path class="cls-2" d="M333.09,591c-1.94-1.75-3.78-3.35-5.55-4.83q-3.9-2.39-8.07-4.8c-9.75-5.19-19.79-10.53-28.67-15.27q-10.57-5.24-22.24-10.5a183.36,183.36,0,0,1-30.72-17.35L236.46,540a16,16,0,0,1-2,2.36q-.48.57-1,1.11c68.29,31.74,111.55,59.92,129.24,84.08C358.27,618.51,349.65,605.93,333.09,591Z"/><path class="cls-2" d="M164.84,475.58a120.25,120.25,0,0,1-8.08-18.15c-.06,11.49,1.68,17.62,1.7,17.71l.22.75-.13.78c-.36,2-7.71,41.53-26.33,71.43q1.13-.9,2.19-1.8C143.45,534.34,162.66,505.66,164.84,475.58Z"/><path class="cls-2" d="M300.5,219.66s18.84,34.2,78.93,40.17h2c60.09-6,78.93-40.17,78.93-40.17s-30.2,30.69-79.94,32.53C330.69,250.35,300.5,219.66,300.5,219.66Z"/><path class="cls-2" d="M322.2,175.45c15.57-13.23,36.53-22.29,36.53-22.29s-23.39,5-40,21.69-20.27,35.07-20.27,35.07S306.62,188.69,322.2,175.45Z"/><path class="cls-2" d="M179.11,704.18V649.81l-2.71-2.95-1,39.69a6.73,6.73,0,0,1-.63-.79l.18,12.25C176.19,700,177.58,702.06,179.11,704.18Z"/><path class="cls-2" d="M201.7,731.93V674.35l-2.11-2.3L199,719.32l-3.21-3.94-.31,9.21C197.41,726.92,199.49,729.36,201.7,731.93Z"/><path class="cls-2" d="M282.19,404.41c30.95,1.69,52.6-15.68,58.84-21.4l-3.45-5.17a53,53,0,0,1-4.55,2.8C319.51,396,290.59,402.72,282.19,404.41Z"/></g><g id="color_2" data-name="color 2"><path class="cls-3" d="M72.44,537.25A29,29,0,0,0,61.19,542c-1.89,1.26-7.64,6.81-10,6-1.66-.56-2.22-3.55-2.74-5.17a65.88,65.88,0,0,0-3.69-10,39.06,39.06,0,0,0-37-21.3,1.15,1.15,0,0,0-.31,2.25c10.21,2.64,20.18,10.63,24.1,20.59,3.83,9.74,1.14,21.91,11.34,28.33,5.63,3.54,12.61,3,18.53.62,4.06-1.6,9.92-7.24,14.34-6.65a13,13,0,0,1,4,1.47c0-7.77,0-14.8,0-20.78A19.8,19.8,0,0,0,72.44,537.25Z"/><path class="cls-3" d="M156.22,573.8a118.92,118.92,0,0,1-11.89-1.64,76.15,76.15,0,0,0-6.1,6,32.92,32.92,0,0,0-3.61-8.21,103.41,103.41,0,0,1-17.34-6.3l-3.91-2,2.94-3.23c1.35-1.48,2.65-3,3.92-4.65-.29-7.5-.86-15.92-6.94-20.51a14.66,14.66,0,0,0-4.93-2.44c0,14.67,0,38.94.07,65.45,1.67.3,3.38.47,5.08.61-.39,7.67-.87,15,2.65,22.19,6.39,13,22.33,19,35.93,14.73a14.22,14.22,0,0,0,4-2C156,604.94,156.16,581.9,156.22,573.8Z"/><path class="cls-3" d="M160.44,513.83c-.48.59-1,1.28-1.56,2.08C159.44,515.11,160,514.42,160.44,513.83Z"/><path class="cls-3" d="M158.88,515.91c-.57.8-1.17,1.71-1.81,2.75C157.71,517.62,158.31,516.71,158.88,515.91Z"/><path class="cls-3" d="M150.73,469.34c-20,11.63-37.45,17.6-52.18,20.15a25.42,25.42,0,0,0,.6,7.67,21.66,21.66,0,0,0,.83,2.65c-.31.11-.62.22-.94.35-4,1.59-7.62,2.83-12.06,2-4.1-.81-7.09-3.68-10.91-5.11a.66.66,0,0,0-.84.64c.68,6.63,8.6,11.43,14.31,13.51,8.5,3.1,17.9-.84,25.63,4.42,7.22,4.9,10.44,13.48,17,19C145,509.48,151,481,151.9,476.2A58.94,58.94,0,0,1,150.73,469.34Z"/><path class="cls-3" d="M68.66,413.3c-1.32-.05-2.09.32-3-.33-3.36-2.26-3.32-11.66-4.3-15.27a39.21,39.21,0,0,0-8-15.38c-5.27-6-18.14-13.55-25.83-7.72-.9.69-1.28,2.32,0,2.92,5.07,2.38,9.67,3.08,12.71,8.37,2.6,4.51,3.29,9.89,3.6,15A32.8,32.8,0,0,0,40.1,400c-3.7-.71-7.46-1.32-10.66-3.43-6.11-4-6.56-13.27-13.53-16.17-.85-.35-1.75.68-1.49,1.49,1.28,3.89,3,7.71,4.48,11.55,1.32,3.46,2.58,7.29,5.29,9.94,6.18,6,15.41,7.21,21.05,14.07.24.3.48.59.73.88,1.68,5.94,4.83,11.17,11.13,14.58a20.27,20.27,0,0,0,4.82,1.81,140,140,0,0,0,9.72-21.15C70.65,413.42,69.65,413.33,68.66,413.3Z"/><path class="cls-3" d="M160.44,513.83c.12-.15.24-.27.35-.41h0C160.68,513.56,160.56,513.68,160.44,513.83Z"/><path class="cls-3" d="M72.37,366.92a9.08,9.08,0,0,1,2.5,3.75c.72,2.71-1.06,5.95-.21,9.05A15,15,0,0,0,79.54,387c1.8-7.48,3.38-15.26,4.78-23.24A67.17,67.17,0,0,1,72.37,366.92Z"/><path class="cls-3" d="M67.78,653.86c0,6.85,0,16.22.12,26.21.48.35,1,.69,1.5,1a26.13,26.13,0,0,0,10.27,3.46c0-14.12.07-30.89.08-48.3-1.7-1.9-3.46-3.76-5.25-5.56-9-14-27.18-23.32-43.78-20.14-2,.38-1.92,3.53,0,4A34.32,34.32,0,0,1,57.27,640,14.37,14.37,0,0,1,67.78,653.86Z"/><path class="cls-3" d="M105.8,733.46c3.21,4.16,7.69,7.48,12,10.3a127.27,127.27,0,0,1,14.27,11,1.4,1.4,0,0,0,2,0c7.18-7.81-2.73-19.61-8.48-24.93-.72-.67-1.52-1.38-2.31-2.14a32.83,32.83,0,0,0,3.11-1.63c2,.65,3.94,1.17,5.91,1.73,3.57,2.11,7,4.32,9.6,7.95,9.35,13.19-.56,35.91,16.67,43.55,1.16.51,2.72-.61,1.9-1.9-3.19-5-2.43-11.47-1-17.35,1.46-2.47,2.1-5.36,3-8.06,1.88-5.94,3-11.91,1.8-18.13-2.87-15-14-23.91-26.89-30.4-1.4-.71-3-1.37-4.55-2.17a18.41,18.41,0,0,1-.55-2.81,82.17,82.17,0,0,0-1.17-9.09,21.92,21.92,0,0,0-2.61-12.8,8.24,8.24,0,0,0-.83-1.36,26.9,26.9,0,0,0,2.72-9.48c.43-6.93-2.85-13.81-6.84-19.36a30.21,30.21,0,0,0-15-11.24c0,38-.1,73.35-.33,85.09A41.66,41.66,0,0,1,105.8,733.46Z"/><path class="cls-3" d="M28.94,471.26,26.1,468,30,466.11A64,64,0,0,0,37.36,462a15.33,15.33,0,0,0-3.72-1.42,18.56,18.56,0,0,0-3.5-.52c-.38-2.58-3.32-9.06-3.73-9.72a26.24,26.24,0,0,0-9.12-8.84c-3.74-2.22-5.69-2.53-9.86-2.76-.57,0-.62.78-.13.95,10.58,3.59,3.94,16.67,5.23,24.35.76,4.52,2.82,8.79,6.71,11.42A16.24,16.24,0,0,0,24,477.68c1,.21,2.05.36,3.08.49a32.28,32.28,0,0,0,1.77,7A19.13,19.13,0,0,0,36.94,496c3.52,2.2,7.83,4,12,3.31,2.38-1.26,2.6-1.14.67.34a9.21,9.21,0,0,0,2.67.88c2.89.69,3.08.73,4.88,3.19a1.51,1.51,0,0,0,2.6-1.52c-.79-1.73-1.8-2.86-2.1-4.73s0-3.18-1-4.92A18.85,18.85,0,0,0,54.88,490c.16,1.7.15,1.79,0,.24a4.13,4.13,0,0,0-.56-2.08,7.65,7.65,0,0,0-1-1.69C37.27,480.72,29.32,471.69,28.94,471.26Z"/><path class="cls-3" d="M75.71,755.74h-.79c-15.89,0-32.79-12-34.34-34.77-.56-8.15-.91-17.84-1.13-27.59l-.23-.24c-4.63-4.59-13.35-8.95-14-16.07a2.71,2.71,0,0,0-5.42,0c-.51,7.08,3.77,12.76,7.5,18.35,5,7.5,2.07,16.43,5.71,24.49a23.58,23.58,0,0,0,2,3.48,43.59,43.59,0,0,0,.47,8.4c.93,5.84,3.91,11.37,9,14.63a17.25,17.25,0,0,0,6.72,2.51,28.59,28.59,0,0,0,.72,4.82,23.53,23.53,0,0,0,6,10.83c5.25,5.24,12.37,7.72,19.45,9.31,8.42,1.9,17,3.31,25.18,6a57,57,0,0,1,6.11,2.38l2.18,1.58a45.19,45.19,0,0,0,11.73,10.27c6.35,3.69,13.47,5.94,18.69,11.28a69.58,69.58,0,0,0,9.57,8.58c3,2.09,6.06,3.68,8.11,6.75,4.17,6.24,6.55,13.13,9.67,19.94,2.83,6.17,6.45,11.22,13.41,12.67a2.24,2.24,0,0,0,.93,0l.78-3.77c-10.73-12.45-2.43-29.21-11.44-42.25-2.35-3.41-5.34-5.76-8.56-8.27s-5.72-5.82-8.75-8.7c-5.72-5.47-12.54-8.27-19.57-11.58s-11.19-7.53-15.71-13.61a78.71,78.71,0,0,0-15.64-16.44c-1.66-1.27-3.36-2.48-5.07-3.67A32.59,32.59,0,0,1,75.71,755.74Z"/><path class="cls-3" d="M149.79,657.49a1.77,1.77,0,0,0-2.92,1.71c.92,5.15,1.37,9.82,3.17,14.78a149.15,149.15,0,0,0,5.61,14.12c1.77,3.66,4.07,6.82,7.74,8.81a24,24,0,0,0,4.05,1.57c-6.48-11-9.62-21.15-10.72-34.75C154.53,661.55,152.14,659.68,149.79,657.49Z"/><path class="cls-3" d="M40.62,280.73A48.73,48.73,0,0,0,35.18,271c-3.91-5.45-8.25-8-14.72-9.56a1.52,1.52,0,0,0-1.16,2.76c6,4.12,7.78,13.1,8.49,19.87.34,3.24.55,6.46,2.09,9.4,1.83,3.48,4.65,4.58,7.51,6.95l.74.67a126.5,126.5,0,0,0,6.27-15.72C42.33,284.14,41.76,283.46,40.62,280.73Z"/><path class="cls-3" d="M305.77,330.18c-28.23,4.11-89.94-5.92-107.14-65.84,4.89,21.58,18.62,42,38.26,56.25,22.08,16,48.8,22.16,73.92,17.14Z"/><path class="cls-3" d="M379.08,278.88A134.71,134.71,0,0,1,324,262.59a115.81,115.81,0,0,0,55.7,20.69h3.75a115.81,115.81,0,0,0,55.7-20.69A134.76,134.76,0,0,1,384,278.88Z"/><path class="cls-3" d="M438.32,159.5c27.82,21.11,28.92,50.07,28.92,50.07s-5.37-30.4-30.6-45.84-46.87-17.37-46.87-17.37a76.38,76.38,0,0,1,33,4.59,124.63,124.63,0,0,0-39-9.78h-4.41a124.55,124.55,0,0,0-39,9.78,76.38,76.38,0,0,1,33-4.59s-21.64,1.93-46.87,17.37-30.61,45.84-30.61,45.84,1.11-29,28.93-50.07c-30.38,20.46-37.1,50.07-37.1,50.07s-4.86-19.8,7-41.23q-2.28,2.4-4.33,4.73c-2.81,4.36-16.44,27.74-1.73,50.44,2,2.64,4.28,5.34,6.75,8.06,22,24.29,50.38,38,84.2,40.71h3.89c33.82-2.73,62.15-16.42,84.2-40.71,2.32-2.55,4.43-5.09,6.36-7.58.37-.78.74-1.55,1.09-2.35h.43c12.83-22.1-.13-44.33-2.86-48.57q-2.06-2.32-4.33-4.73c11.89,21.43,7,41.23,7,41.23S468.7,180,438.32,159.5Zm3.81,15.35c16.58,16.64,20.26,35.07,20.26,35.07s-8.13-21.23-23.71-34.47-36.53-22.29-36.53-22.29S425.54,158.2,442.13,174.85Zm18.25,44.81s-18.84,34.2-78.93,40.17h-2c-60.09-6-78.93-40.17-78.93-40.17s30.19,30.69,79.94,32.53C430.18,250.35,460.38,219.66,460.38,219.66Zm-81-65h4.41a44.55,44.55,0,0,1,0,89.09h-4.41a44.55,44.55,0,1,1,0-89.09Zm-60.6,20.21c16.59-16.65,40-21.69,40-21.69s-21,9.06-36.53,22.29-23.72,34.47-23.72,34.47S302.16,191.49,318.75,174.85Zm62.8,95.31c-50.65-.13-90.69-48.52-90.69-48.52s39.6,38.41,90.69,40.61c46.68,2,86.45-36.05,86.45-36.05S432.21,270.3,381.55,270.16Z"/><path class="cls-3" d="M275.48,202.7a53.41,53.41,0,0,1,.94-11.52c-1.71,2.56-2.92,4.55-3.63,5.76C273.3,198.16,274.19,200.16,275.48,202.7Z"/><path class="cls-3" d="M303.65,342.18a91,91,0,0,1-10.17.57A100,100,0,0,1,235,323.27c-21.87-15.86-36.65-39.16-40.55-63.44-1.37,25.78,22.06,53.48,22.06,53.48S195,300.73,187.13,268.67a103.07,103.07,0,0,0,18.93,41.77,107.85,107.85,0,0,0,86.4,43c3,0,6.05-.14,9.09-.39-34.54.45-54.86-16-54.86-16S277,348.71,303.65,342.18Z"/><path class="cls-3" d="M60,209.49c9-51.83,22.12-107.22,72.23-139.26l-3.67-5.49c-18,7.05-64.07,35.7-75.77,145A17.44,17.44,0,0,0,60,209.49Z"/><path class="cls-3" d="M152.15,100.05c-4.44,2.34-18.27,10.94-32.63,33.19-21.22,32.9-31.9,127.53-38.1,197.2a26,26,0,0,0,7.47,2.78c1.82-14.14,3.36-28.59,4.88-42.94,7.35-69,14.94-140.15,52-174.65l0,0h0a78,78,0,0,1,11-8.57Z"/><path class="cls-3" d="M365.1,648.21c-2.4-17.85-28.09-49.62-136.38-99.71-.61.6-1.22,1.2-1.84,1.77,47,20.69,70.43,44.16,71.43,45.18l1.08,1.09-9.78,108.1a10.15,10.15,0,0,1-6.92,8.8,10.62,10.62,0,0,1-3.36.56,10.16,10.16,0,0,1-7.48-3.32c-22.38-24.21-76-81.5-109.14-111.14,0,1.73,0,3.52,0,5.36L365.19,818.63C365.67,785.85,367.28,664.4,365.1,648.21Zm-7.75,99.92v43.93c0,4.87-2.08,7-5.73,2.8l-41-47.32,23.83-9.71c1-6.55,3.12-23.64,3.49-49.58.48-33.78-24.74-71.73-24.74-71.73s31.24,24.63,31.05,58.42h0c.14-4.82.16-9.16,0-12.65-.92-21.69-20.22-54.23-20.22-54.23s32.54,26.66,34.37,43.38S357.35,748.13,357.35,748.13Z"/><path class="cls-3" d="M185.73,712.86c2.88,3.61,6.11,7.49,9.7,11.73l.31-9.21-2.86-3.51L194,666l-8.31-9Z"/><path class="cls-3" d="M167.28,637,162.73,632c0,6.66.07,13.55.13,20.51.18,19.53,3,31.33,12.06,45.49l-.18-12.25C172.63,682.79,166.06,670.74,167.28,637Z"/><path class="cls-3" d="M219.23,743.54l-2.31-3.5V690.88l-8.6-9.35V739.6l.76.88c3.13,3.62,6.49,7.51,10,11.64Z"/><path class="cls-3" d="M272.91,140.71c-8.37,3.88-8,26.89,4.26,37.93a181.07,181.07,0,0,1,11.8-14c-3.39-1.13-8.51-3.32-12.28-7.06a11.86,11.86,0,0,1-4-2.08l-.09-.06a1.79,1.79,0,0,0-.31-.28c-.13-.11-.27-.22-.39-.34-.29-.27-.56-.56-.82-.85-2-2.77-2.43-8.56,3.82-9.83-.91,1.13-.42,4,1.55,5.88,2.4,2.27,5.63,1.84,9.12-1.21C287.14,143,280.39,137.24,272.91,140.71Z"/><path class="cls-3" d="M165.07,511.91h0c.57,1.6,1.52,4.11,2.53,6.4.38.86.77,1.68,1.15,2.42h0c2.22,5.71,8.19,13,23.36,18.74,16.85,6.38,27.06,4.51,32.76,1.69-2.16-1.23-4.37-2.64-6.6-4.19C207.53,537.49,179.33,536.32,165.07,511.91Z"/><path class="cls-3" d="M104.08,418.13h0c-.1,1.59-.28,3.57-.63,6v0c-1.37,6.91-1.71,16,3.08,23.6,6.36,10,20.33,15.24,41.49,15.47L150.2,462c0-1.06-.07-2.17-.07-3.33a47.19,47.19,0,0,1-17-6.7,55.25,55.25,0,0,1-17-8.37C108.91,438.07,103.47,430,104.08,418.13Z"/><path class="cls-3" d="M161.22,423.49s-10.69-25.16,10.3-52.29a40.79,40.79,0,0,1-5.56-5.49,26.91,26.91,0,0,0-5.14,6.16C152.48,385.37,152,407,152,407s-.42-.73-1-2.07C153.88,418.06,161.22,423.49,161.22,423.49Z"/><path class="cls-3" d="M216.18,451.18c16,1.1,29.78,1.79,32.12,26.46,1.55,16.25,13.78,23.17,22,26-5.73-3.59-9.73-9.2-12-13.2a22.51,22.51,0,0,1-2.37-4.7l0-.06h0c-1.67-4.6-2-10.16.16-16.85a24.08,24.08,0,0,1-6.08-13.11c-3.28-4.84-9.4-11-19.33-10.87-12.13.55-29.83-1.8-37.57-18.38a25,25,0,0,1-5-6.72C188.9,441.4,201.63,450.17,216.18,451.18Z"/><path class="cls-3" d="M275.74,451.54s5.42,15.44,26.19,16.82,32.81,7.26,48,16.55c14.44,8.84,22.12,14.71,22.82,15.25a199.87,199.87,0,0,0-23.3-27.84A73,73,0,0,0,333,463.4c15.42,9.12,17.4,19.27,17.4,19.27s-8.09-12.15-43.53-21.4a27.56,27.56,0,0,1-21-6.68h0c-.29-.2-.59-.4-.88-.62A22.12,22.12,0,0,1,277,441.16,26.8,26.8,0,0,1,262.16,446a22.73,22.73,0,0,1-4.94-.55c-.11.41-.2.81-.29,1.2a29.53,29.53,0,0,0,3.82,2.94C269.53,455.15,275.74,451.54,275.74,451.54Z"/><path class="cls-3" d="M310.85,552.28c16.43-10.92,3.06-25.74,3.06-25.74a13.2,13.2,0,0,1-.85,8.3c.21-.31.43-.62.62-1,1.42,10.07-4.14,12.74-9.22,13.61h0a24.15,24.15,0,0,1-4,.32,25.72,25.72,0,0,1-9-1.61,23.56,23.56,0,0,1-6.5-3.65l-.13-.1q-.86-.71-1.62-1.47c-3.54-3.8-4.65-10.36.66-15.06a13,13,0,0,1,2.29-4s-14.27,4.3-12.48,15.27c-15.68-5-24-6.82-36.35-20.31a28.59,28.59,0,0,1-15.9-1.8q17.75,20,49.8,34.47c5,2.27,10.47,4.8,16.15,7.53-24.42-17.79-40.55-25.65-40.55-25.65s23.71,7.5,68.93,32.24c19.72,10.79,33.24,21.78,42.21,30.75A131.69,131.69,0,0,0,310.85,552.28Z"/><path class="cls-3" d="M290.8,566.07c8.88,4.74,18.92,10.08,28.67,15.27Q306.43,573.81,290.8,566.07Z"/><path class="cls-3" d="M122.31,420.74c4.92,5.44,13.48,12.07,27.26,14.54a83.32,83.32,0,0,1-7.91-9.07c-1.34-1.8-2.68-3.75-4-5.86-10.1-11-17.22-31.5-20.3-59a284.79,284.79,0,0,1-1.68-29.44C112.51,345.87,108,378.62,122.31,420.74Z"/><path class="cls-3" d="M379,457.52l39.29-31.3-1.39-8-.39-.72A74.3,74.3,0,0,1,411,396.33l-3,4.52a33,33,0,0,0,3.27,19.74L380.45,448l-30.77-27.41a33,33,0,0,0,3.26-19.74l-3-4.52A76.34,76.34,0,0,1,348,407a96.62,96.62,0,0,1-5.65,20.88Z"/><polygon class="cls-3" points="380.45 437.25 380.45 448 380.45 437.25 380.45 437.25"/></g><g id="color_1" data-name="color 1"><path class="cls-4" d="M224.93,475a18.73,18.73,0,0,1-6.69-20.88c-6.36,2.37-7.61,7.95-6.51,12.79a25.07,25.07,0,0,0,1.56,4.1c.09.17.18.34.26.51a25.77,25.77,0,0,0,7.38,8.75,26.3,26.3,0,0,0,4.41,2.69c2.52,1.08,12.18,4.3,18.57-6.68C237,480.69,229.58,478.5,224.93,475Z"/><path class="cls-4" d="M283.26,541q.76.76,1.62,1.47l.13.1a23.56,23.56,0,0,0,6.5,3.65,25.72,25.72,0,0,0,9,1.61,24.15,24.15,0,0,0,4-.32h0c5.08-.87,10.64-3.54,9.22-13.61-.19.33-.41.64-.62,1-4.62,6.76-13.07,7.48-19.23,5.17-5.23-2-10.81-7-9.33-14.59-.21.17-.39.34-.58.51C278.61,530.63,279.72,537.19,283.26,541Z"/><path class="cls-4" d="M324.08,608.06s19.3,32.54,20.22,54.23c.15,3.49.13,7.83,0,12.65h0c.19-33.79-31.05-58.42-31.05-58.42s25.22,38,24.74,71.73c-.37,25.94-2.52,43-3.49,49.58l-23.83,9.71,41,47.32c3.65,4.23,5.73,2.07,5.73-2.8V748.13s2.94-80,1.1-96.69S324.08,608.06,324.08,608.06Zm26.65,175.67-29-33.54,29-11.84Z"/><path class="cls-4" d="M108.36,527.53A14.36,14.36,0,0,0,94,513.21h0a14.36,14.36,0,0,0-14.32,14.35c0,2.83,0,6.13,0,9.83,0,6,0,13,0,20.78,0,22.46,0,51,0,78.07,0,17.41,0,34.18-.08,48.3,0,16.34-.13,29.13-.25,35.19,0,2.7-.69,7.25-4.39,7.34h-.09l-.4,0c-1.85-.16-3.78-1.49-4.75-4.62a14.73,14.73,0,0,1-.6-3.4c-.76-11.11-1.12-25.6-1.29-39-.13-10-.14-19.36-.12-26.21A14.37,14.37,0,0,0,57.27,640a13.91,13.91,0,0,0-3.67-.54,14.31,14.31,0,0,0-14.5,14.28c0,9.82,0,24.78.35,39.61.22,9.75.57,19.44,1.13,27.59C42.13,743.8,59,755.75,74.92,755.75h.79A32.59,32.59,0,0,0,99,745a34.16,34.16,0,0,0,6.82-11.55,41.66,41.66,0,0,0,2.29-13.18c.23-11.74.31-47.07.33-85.09,0-12.94,0-26.19,0-38.93,0-26.51,0-50.78-.07-65.45Zm-6.88,192.62c-.36,18.62-13.32,28.66-25.93,29h-.63c-12.42,0-26.4-9-27.74-28.6C45.8,700.18,45.67,670,45.71,653.8a7.72,7.72,0,0,1,7.73-7.69h.09a7.74,7.74,0,0,1,7.63,7.74c0,4.38,0,9.8,0,15.75H47.52v23.32h14c.22,9.47.56,18.81,1.08,26.56.68,10,6.83,14.28,12.59,14.21,5.13-.13,10.68-3.83,10.87-13.83.46-24.05.32-153.27.26-192.3A7.72,7.72,0,0,1,94,519.83h0a7.72,7.72,0,0,1,7.72,7.71c0,5.35,0,12.42,0,20.67H88.66v23.32h13.13c0,5.62,0,11.49,0,17.51H88.66v23.32h13.15C101.81,658.2,101.75,706.12,101.48,720.15Z"/><path class="cls-4" d="M227.39,389.78c25.9,9.84,41.67,8.1,48.49,6.35a19.62,19.62,0,0,0,4-1.38s-25.8,1.18-55.58-13.25c-26.62-12.89-40.79-29.81-43.5-33.26l-.49-.64S191.37,376.09,227.39,389.78Z"/><rect class="cls-4" x="215.35" y="33.73" width="92.51" height="11.44"/><rect class="cls-4" x="161.46" y="78.59" width="92.51" height="11.44"/><rect class="cls-4" x="275.91" y="78.59" width="92.51" height="11.44"/><polygon class="cls-4" points="377.14 33.73 325.74 33.73 325.74 45.17 377.14 45.17 383.76 45.17 435.17 45.17 435.17 33.73 383.76 33.73 377.14 33.73"/><path class="cls-4" d="M209.75,340.44c39.7,33.44,88.41,22.64,88.41,22.64s-55.33,3.9-87.49-29.78-36-74.49-36-74.49S170,307,209.75,340.44Z"/><path class="cls-4" d="M334.8,199.18a44.61,44.61,0,0,0,44.55,44.55h4.41a44.55,44.55,0,0,0,0-89.09h-4.41A44.6,44.6,0,0,0,334.8,199.18Zm44.6,33.44c39.71,2.48,42.47-33.55,33.28-52.66a40.82,40.82,0,0,0-10.77-14.07,37.92,37.92,0,0,1-18.15,71.22h-4.41a37.9,37.9,0,0,1-37-46.2C342.27,192.05,340.29,230.17,379.4,232.62Zm-19.92-60.86a11.95,11.95,0,1,1-12,12A12,12,0,0,1,359.48,171.76Z"/><path class="cls-4" d="M722.49,300.45a130.53,130.53,0,0,1-6.14-15.6,283.14,283.14,0,0,1-8.54-35.22A44.93,44.93,0,0,0,758.29,242l2.61-2.68-3-2.26c-14.18-10.84-20.2-35.6-27.17-64.28C719.41,126.1,705.33,68.24,647.7,41.7L669.48,9.08A5.84,5.84,0,0,0,664.62,0H96.28a5.84,5.84,0,0,0-4.85,9.08L113.2,41.7C55.57,68.24,41.49,126.1,30.14,172.79c-7,28.68-13,53.44-27.17,64.28l-3,2.26L2.61,242c.17.17,12.18,12.18,30.71,12.18a46.85,46.85,0,0,0,19.78-4.56,282.65,282.65,0,0,1-8.7,35.69A126.5,126.5,0,0,1,38.13,301c-7.11,14.7-17,26.19-31.78,33l-3.84,1.77,2.64,3.3a88.25,88.25,0,0,0,24,19.62,67.45,67.45,0,0,0,33.08,9,62,62,0,0,0,10.15-.86,67.17,67.17,0,0,0,11.95-3.16c-1.4,8-3,15.76-4.78,23.24a235.34,235.34,0,0,1-7.9,26.55,140,140,0,0,1-9.72,21.15C55.39,446.11,47.36,455.43,37.36,462A64,64,0,0,1,30,466.11L26.1,468l2.84,3.29c.38.43,8.33,9.46,24.35,15.2,2.25.8,4.65,1.54,7.21,2.18a83.66,83.66,0,0,0,20.39,2.42,103.25,103.25,0,0,0,17.66-1.57c14.73-2.55,32.16-8.52,52.18-20.15a58.94,58.94,0,0,0,1.17,6.86c-1,4.82-6.91,33.28-19.69,58.37a118.87,118.87,0,0,1-12,19.19c-1.27,1.61-2.57,3.17-3.92,4.65l-2.94,3.23,3.91,2a103.41,103.41,0,0,0,17.34,6.3c2.95.81,6.2,1.59,9.71,2.26a118.92,118.92,0,0,0,11.89,1.64c-.06,8.1-.21,31.14-.1,58,0,6.75.06,13.75.13,20.8,0,4,.19,7.69.47,11.16,1.1,13.6,4.24,23.78,10.72,34.75,7.32,12.39,18.9,25.8,36.63,46.32q4.65,5.38,9.91,11.5c3.71,4.31,7.64,8.9,11.81,13.82,16.37,19.32,32.84,37.82,48.3,54.66,35.66,38.86,65.89,68.87,76.81,79.57,5.05,4.95,10.39,6.71,15.31,6.71a25.08,25.08,0,0,0,14.24-4.83,25.08,25.08,0,0,0,14.24,4.83c4.93,0,10.26-1.76,15.31-6.71,10.95-10.72,41.29-40.85,77.06-79.84,15.38-16.77,31.77-35.17,48.05-54.39q6.12-7.22,11.56-13.54c3.6-4.19,7-8.1,10.16-11.78,17.92-20.73,29.55-34.21,36.86-46.71,6.48-11.09,9.56-21.41,10.58-35.35.23-3.18.35-6.55.39-10.17.06-6.83.1-13.61.12-20.16.11-27.1,0-50.45-.1-58.61,3.91-.33,7.63-.86,11.11-1.5s6.51-1.34,9.38-2.1a105,105,0,0,0,18.45-6.6l3.92-2-2.95-3.23c-1.67-1.83-3.27-3.78-4.8-5.81A121,121,0,0,1,628.41,534c-12.59-25-18.46-53-19.41-57.81a56.79,56.79,0,0,0,1.17-6.86c19.59,11.38,36.7,17.34,51.24,20a103.87,103.87,0,0,0,18.6,1.74,83.6,83.6,0,0,0,20.39-2.42c2.1-.52,4.09-1.12,6-1.76,16.84-5.7,25.2-15.17,25.58-15.62L734.8,468l-3.93-1.86a62.44,62.44,0,0,1-7.73-4.4c-9.87-6.56-17.81-15.87-24.28-27.22a141.5,141.5,0,0,1-9.64-21.05,237,237,0,0,1-8-27.16c-1.73-7.26-3.25-14.79-4.61-22.52a66.76,66.76,0,0,0,11.14,3,61.39,61.39,0,0,0,11,1,67.51,67.51,0,0,0,33.08-9,88.11,88.11,0,0,0,24-19.62l2.64-3.3-3.83-1.77C739.57,327.13,729.62,315.43,722.49,300.45Zm-43,30a26,26,0,0,1-7.47,2.78c-1.81-14.14-3.35-28.59-4.88-42.94-8-75.42-16.34-153.35-63-183.26l4.65-7c4.44,2.34,18.27,10.94,32.63,33.19C662.6,166.14,673.28,260.77,679.48,330.44Zm-80-127.69c11.5,44.71,4.4,101.31-28.87,138.41C524.09,393,453.32,390.78,427,372.35l1.27-1.91c34.76,21.3,83,5.28,83,5.28s-44.62,10.27-79.18-11L437.9,356a117.69,117.69,0,0,0,30.27,4,115.54,115.54,0,0,0,91.95-45.57c29.94-39.59,29.93-92.43.13-141.71l9-13.44C605,193.89,601,259.55,601,259.55S606,234.46,599.47,202.75ZM425,419.81a38.73,38.73,0,0,0,16.07,6v.5a111.23,111.23,0,0,0-29.73,18.33c-3.7,3.27-11.65,11.48-11.74,21.47.17-.23,16.35-21.5,41.47-32.62v5.17c-7.36,5.06-39.36,28.21-60.6,61.13-21.24-32.92-53.24-56.07-60.6-61.13V433.5c25.12,11.12,41.3,32.39,41.47,32.62-.08-10-8-18.2-11.73-21.47a111.3,111.3,0,0,0-29.74-18.33v-.5a38.81,38.81,0,0,0,16.08-6,48.77,48.77,0,0,1-5.32,8.22c6.73-.21,11.08-5.3,13.78-10.49A74.86,74.86,0,0,0,348,407a76.34,76.34,0,0,0,1.95-10.67l3,4.52a33,33,0,0,1-3.26,19.74L380.45,448V436.11h0V448l30.78-27.41A33,33,0,0,1,408,400.85l3-4.52a74.3,74.3,0,0,0,5.53,21.21l.39.72c2.72,4.93,7,9.57,13.39,9.77A48.42,48.42,0,0,1,425,419.81ZM191.69,159.28l9,13.44c-29.81,49.28-29.82,102.12.13,141.71A115.54,115.54,0,0,0,292.73,360,117.64,117.64,0,0,0,323,356l5.84,8.74c-34.57,21.25-79.19,11-79.19,11s48.24,16,83-5.28l1.28,1.91c-26.34,18.43-97.11,20.66-143.61-31.19-33.28-37.1-40.38-93.7-28.87-138.41-6.51,31.71-1.51,56.8-1.51,56.8S155.91,193.89,191.69,159.28Zm-45.9-43.69,0,0c-37,34.5-44.62,105.62-52,174.65-1.52,14.35-3.06,28.8-4.88,42.94a26,26,0,0,1-7.47-2.78c6.2-69.67,16.88-164.3,38.1-197.2,14.36-22.25,28.19-30.85,32.63-33.19l4.65,7A78,78,0,0,0,145.79,115.59ZM34.07,199.74q-.24.84-.54,1.74c0,.05,0,.1,0,.16h0c-2.42,7.51-6.71,17.59-13.81,25.17,7.44-13.59,11.94-32.06,16.89-52.44C47.64,128.81,61.38,72.3,116.92,47.27l.12.18C90.09,62.39,76.56,83.52,69.87,99.23c-5.27,12.35-6.3,21.35-6.3,21.35s18.95-34,49.15-51c-21.94,15-53.56,51.53-63.1,138.89a8.27,8.27,0,0,1-.93-.61A14.87,14.87,0,0,1,44,200.22h0c-2.45-6.46-4.72-8.73-4.72-8.73a7.52,7.52,0,0,0-1.66,1.58A21.1,21.1,0,0,0,34.07,199.74Zm690.26-25.38c5,20.38,9.45,38.85,16.89,52.44-7.09-7.58-11.39-17.66-13.8-25.17h0a1.42,1.42,0,0,1,0-.16q-.29-.9-.54-1.74a20.76,20.76,0,0,0-3.54-6.72,7.94,7.94,0,0,0-1.63-1.54s-2.27,2.27-4.72,8.73h0a14.8,14.8,0,0,1-4.73,7.62,9.16,9.16,0,0,1-.92.61c-9.55-87.36-41.17-123.88-63.11-138.89,30.21,17,49.15,51,49.15,51s-1-8.92-6.23-21.2c-6.67-15.72-20.21-36.94-47.24-51.93l.12-.18C699.52,72.3,713.26,128.81,724.33,174.36ZM147.53,73.71V81.2l-5-7.49L130.8,56.14h16.73Zm6.61,0V56.14H260.57V95.61l-102.78,1-3.65-5.47Zm113.05,0V56.14h110V94.51l-109.95,1Zm116.57,0V56.14h110V95.55l-109.95-1Zm116.57,0V56.14H606.76v35l-3.65,5.47-102.78-1Zm118.05,0-5,7.49V56.14H630.1Zm13.94-9c18,7.05,64.08,35.7,75.77,145a17.44,17.44,0,0,1-7.21-.21c-9-51.83-22.12-107.22-72.23-139.26Zm-503.74,0,3.67,5.49C82.14,102.27,69,157.66,60,209.49a17.44,17.44,0,0,1-7.21.21C64.51,100.44,110.62,71.79,128.58,64.74Zm421.29,61.5v20.3H506.56a38.69,38.69,0,0,0-1.41-6h39.71V129.06H497a16.5,16.5,0,0,0-1.6-.87,19.65,19.65,0,0,0-18.34.87H452.35V140.5h15.92a13,13,0,0,0,.21,6h-14.2q-3.5-2.68-7.35-5.29V101.72l102.94,1ZM457.25,342.18a91.09,91.09,0,0,0,10.17.57A100,100,0,0,0,526,323.27c21.86-15.86,36.64-39.16,40.55-63.44,1.36,25.78-22.06,53.48-22.06,53.48s21.42-12.58,29.32-44.64a102.94,102.94,0,0,1-18.93,41.77,107.82,107.82,0,0,1-86.39,43c-3,0-6.06-.14-9.1-.39,34.55.45,54.86-16,54.86-16S484,348.71,457.25,342.18Zm-25.59,11.24-3.92,5.88H388.66v11.45H420.1l-3.32,5h-33V344.54h53.83Zm-98.5,5.88-3.92-5.88-5.93-8.88h53.83v31.18h-33l-3.32-5h31.44V359.3ZM301.55,353c-3,.25-6.07.39-9.09.39a107.85,107.85,0,0,1-86.4-43,103.07,103.07,0,0,1-18.93-41.77c7.9,32.06,29.33,44.64,29.33,44.64S193,285.61,194.4,259.83c3.9,24.28,18.68,47.58,40.55,63.44a100,100,0,0,0,58.53,19.48,91,91,0,0,0,10.17-.57c-26.7,6.53-57-5.13-57-5.13S267,353.48,301.55,353ZM211,126.24V102.69l102.94-1v41q-2.66,1.88-5.14,3.78h-14.2a13,13,0,0,0,.21-6h13.71V129.06H286.07a19.65,19.65,0,0,0-18.34-.87,16.5,16.5,0,0,0-1.6.87H216V140.5H258a38.69,38.69,0,0,0-1.41,6H211Zm283.9,76.91h37l-12.34,18.49-5.29,7.92H480.15c1.87-2.73,3.57-5.39,5.1-7.92A160.86,160.86,0,0,0,494.93,203.15Zm-8.24-12c1.7,2.56,2.92,4.55,3.63,5.76-.51,1.22-1.41,3.22-2.69,5.76A53.41,53.41,0,0,0,486.69,191.18ZM440.46,337.93h-120l.09-24.34.05-14.46H440.33l.05,14.46ZM276.42,150c-2-1.87-2.46-4.75-1.55-5.88-6.25,1.27-5.82,7.06-3.82,9.83.26.29.53.58.82.85.12.12.26.23.39.34a1.79,1.79,0,0,1,.31.28l.09.06a11.86,11.86,0,0,0,4,2.08c3.74,1.09,8.47.43,13.38-3.94.18-.16.34-.33.52-.5h10.19c-2.14,1.89-4.16,3.76-6,5.58-2,2-3.95,4-5.77,5.92a181.07,181.07,0,0,0-11.8,14c-1.37,1.81-2.63,3.53-3.74,5.12-1.47,2.09-2.72,4-3.74,5.55-7.69-20.51-8.52-37.77-5.31-47.18,1.37-4,3.43-6.68,6.13-7.93a13.43,13.43,0,0,1,16.58,4.57c1.34,2,2.94,6.06-1.42,9.95l-.13.11C282.05,151.88,278.82,152.31,276.42,150Zm20.81,97.57H258.61L254.2,241h37.31C293.28,243.17,295.19,245.38,297.23,247.61Zm-20.81-56.43a53.41,53.41,0,0,0-.94,11.52c-1.29-2.54-2.18-4.54-2.69-5.76C273.5,195.73,274.71,193.74,276.42,191.18Zm-8.24,12a160.86,160.86,0,0,0,9.68,18.49c1.53,2.53,3.23,5.19,5.1,7.92h-36.4l-5.29-7.92-12.34-18.49Zm-1,51.08h36.49A138.22,138.22,0,0,0,322,269.11a128.69,128.69,0,0,0,11.79,7.1H277.7l-4.74-7.1-5.77-8.64Zm110,35.41v2.87H288.58l-3.24-4.86h79.81Q370.94,288.91,377.14,289.64Zm6.62.22h.34A124.17,124.17,0,0,0,398,287.65h77.61l-3.25,4.86H383.76Zm-.33-6.58h-3.75A115.81,115.81,0,0,1,324,262.59a134.71,134.71,0,0,0,55.1,16.29H384a134.76,134.76,0,0,0,55.1-16.29A115.81,115.81,0,0,1,383.43,283.28ZM314,299.13l0,14.46-.06,16.78-11.2-16.78L293,299.13Zm133,0h21l-9.66,14.46-11.2,16.78L447,313.59Zm41-30-4.75,7.1H429.3a128.69,128.69,0,0,0,11.79-7.1,138.22,138.22,0,0,0,18.34-14.88h34.28v6.24ZM471.6,241h35.11l-4.42,6.6H465.87C467.92,245.38,469.83,243.17,471.6,241Zm-3.21-72.67q2.28,2.4,4.33,4.73c2.73,4.24,15.69,26.47,2.86,48.57-.36.62-.73,1.24-1.14,1.87l-.38.48c-1.93,2.49-4,5-6.36,7.58-22.05,24.29-50.38,38-84.2,40.71h-3.89c-33.82-2.73-62.15-16.42-84.2-40.71-2.47-2.72-4.71-5.42-6.75-8.06-14.71-22.7-1.08-46.08,1.73-50.44q2.06-2.32,4.33-4.73c-11.89,21.43-7,41.23-7,41.23s6.72-29.61,37.1-50.07c-27.82,21.11-28.93,50.07-28.93,50.07s5.38-30.4,30.61-45.84,46.87-17.37,46.87-17.37a76.38,76.38,0,0,0-33,4.59,124.55,124.55,0,0,1,39-9.78h4.41a124.63,124.63,0,0,1,39,9.78,76.38,76.38,0,0,0-33-4.59s21.64,1.93,46.87,17.37,30.6,45.84,30.6,45.84-1.1-29-28.92-50.07c30.38,20.46,37.1,50.07,37.1,50.07S480.28,189.77,468.39,168.34ZM256,153.16a81.77,81.77,0,0,0,1.4,16.5,116.63,116.63,0,0,0,3.19,13.3v13.58H224.51l-5.07-7.61h35.1V177.49H211.8l-5.23-7.83-11-16.5Zm-49.75,27.91,2.79,4.18c-20.22,28.77-8.67,58.31-8.67,58.31S200.19,218,212.69,213s28.31,27.21,25.92,36.58-9.75,11.85-9.75,11.85,12.88,7.59,28.84-3.29l3.48,5.21c-23.43,11.32-45,9.34-58.18-5.53C189.5,242.62,185.64,213.3,206.23,181.07Zm30.66,139.52c-19.64-14.24-33.37-34.67-38.26-56.25,17.2,59.92,78.91,70,107.14,65.84l5,7.55C285.69,342.75,259,336.61,236.89,320.59Zm161.49,82.7-17.93,26.86-17.92-26.86-14-21h63.82Zm56.76-73.11c28.23,4.11,89.93-5.92,107.13-65.84-4.88,21.58-18.62,42-38.26,56.25-22.08,16-48.8,22.16-73.91,17.14ZM557.9,257.86c-13.18,14.87-34.74,16.85-58.18,5.53l3.48-5.21c16,10.88,28.84,3.29,28.84,3.29s-7.35-2.47-9.74-11.85,13.41-41.54,25.91-36.58,12.34,30.52,12.34,30.52,11.55-29.54-8.67-58.31l2.79-4.18C575.27,213.3,571.41,242.62,557.9,257.86Zm-3.57-88.2-5.23,7.83H506.36v11.44h35.11l-5.08,7.61H500.33v-6.88a124.94,124.94,0,0,0,5.41-20,82.45,82.45,0,0,0,1.39-16.5h58.21Zm-55.34,0c-.22,1.15-.46,2.32-.73,3.51a123,123,0,0,1-4.84,16.14c-1-1.59-2.27-3.46-3.74-5.55-1.36-1.94-2.94-4.09-4.69-6.35-3.17-4.1-7-8.64-11.41-13.35-1.66-1.75-3.38-3.53-5.21-5.32s-3.9-3.69-6-5.58h10.19c.17.17.34.34.52.5,3.79,3.37,7.48,4.53,10.68,4.39a11.67,11.67,0,0,0,6.73-2.53l.09-.06a1.79,1.79,0,0,1,.31-.28c.13-.11.27-.22.39-.34.29-.27.56-.56.82-.85a7.26,7.26,0,0,0,1.3-3.8,5.72,5.72,0,0,0-.72-3.22,6.22,6.22,0,0,0-4.41-2.81c.91,1.13.43,4-1.54,5.88-2.43,2.3-5.71,1.83-9.25-1.32a9,9,0,0,1-2.23-2.87,7.17,7.17,0,0,1,.81-7.08,13.43,13.43,0,0,1,16.58-4.57,8.6,8.6,0,0,1,1.81,1.14,14.49,14.49,0,0,1,4.32,6.79,34.75,34.75,0,0,1,1.57,8.09A73.82,73.82,0,0,1,499,169.66Zm-58.68-43.42V137a129.27,129.27,0,0,0-22.79-10.8,116.68,116.68,0,0,0-33.59-6.76h-4.75a117,117,0,0,0-33.58,6.76,129.9,129.9,0,0,0-25,12.15V101.66l59.86-.56,59.86.56ZM204.42,102.75v43.79H191.14l-4.32-6.47h12.54v-11H179.47l-1.88-2.82-15.41-23.09Zm378.9,23.49-1.89,2.82H561.54v11h12.54l-4.32,6.47H556.49V102.75l42.23.4Zm123,115.17-.48-2.73c5.3,2.5,24.29,10.16,43.47,2.14C742.12,245.75,726.42,253,706.31,241.41Zm43-.59h0ZM663.16,6.62,648.84,28.07l-3.78,5.66h-82V45.17h74.37l-2.91,4.36h-78V6.62Zm-113.29,0V49.53H446.93V6.62Zm-174.11,0h64.55V49.53H320.59V6.62ZM314,6.62V49.53H211V6.62Zm-109.55,0V49.53h-78l-2.9-4.36h74.37V33.73h-82l-3.78-5.66L97.74,6.62ZM11.59,240.82h0Zm0,0c19.19,8,38.17.36,43.47-2.14-.15.91-.31,1.82-.47,2.73C34.48,253,18.79,245.75,11.6,240.82ZM34,320.21h0a92.82,92.82,0,0,0,25.34-34.63,101.81,101.81,0,0,0,4.24-12,81.2,81.2,0,0,0,3.07-16.26,84.48,84.48,0,0,1-5.77,14L60,273l-.39.75a170,170,0,0,1-10.14,16.85c6.89-19.4,10.7-42.09,14.59-65.4,9.09-54.4,19.38-115.93,71.85-149.44l.18.26C104.7,100.59,89.89,136.41,83,167.87a245.84,245.84,0,0,0-5.17,67.41S85.41,160,127.22,117.2a139.61,139.61,0,0,0-10.48,14.25c-16.44,25.48-28.67,88.08-38.45,196.81A24,24,0,0,1,74,323.72c-5.79-8.1-6.92-19.54-6.7-28.6v-.07c.12-9.65-1.51-15.08-1.51-15.08s-4.34,3.18-6.66,11.3c-4.28,13.55-13,34.72-27.49,42.39a23.56,23.56,0,0,1-15.32,2.51A67.2,67.2,0,0,0,34,320.21ZM18.36,343.05l.26,0-.17.06Zm14.19,10a83.61,83.61,0,0,1-14.08-9.93c26.7,22.26,67.66,9.54,67.68,9.53-.17,1.15-.36,2.3-.54,3.44C68,363.8,50.1,362.8,32.55,353.07ZM49.3,461.19h0c57-42.9,45.32-83.37,45.32-83.37s-.32,3.93-3.82,12.19a143.38,143.38,0,0,1-8.62,16.77q-1.12,1.9-2.39,3.94,1.55-4.56,3-9.43c.13-.46.25-.93.38-1.4,9-32,13.21-71.08,17.24-108.92,7.52-70.59,15.28-143.42,54.38-174.37-26,28.81-38.45,74.49-44.22,116.64v.05a521.8,521.8,0,0,0-4.34,52.06c-1,29.12.46,49.55.46,49.55S117.14,179.54,175.48,135l.35.53c-16.3,18.72-28.07,41.45-36.51,63.36v0a340.41,340.41,0,0,0-13.25,43.18,385.34,385.34,0,0,0-10.35,89.83,284.79,284.79,0,0,0,1.68,29.44c3.08,27.47,10.2,48,20.3,59,1.29,2.11,2.63,4.06,4,5.86a83.32,83.32,0,0,0,7.91,9.07c-13.78-2.47-22.34-9.1-27.26-14.54a33.44,33.44,0,0,1-5.57-8.07,39.55,39.55,0,0,0-.31,6.2c.15,8.48,2.59,23.69,16.74,33.07a47.19,47.19,0,0,0,17,6.7c0,1.16,0,2.27.07,3.33L148,463.26c-21.16-.23-35.13-5.43-41.49-15.47-4.79-7.56-4.45-16.69-3.08-23.6v0c.35-2.46.53-4.44.63-6,0-.65.06-1.25.07-1.77a13.35,13.35,0,0,0-.29-4h0a60.13,60.13,0,0,0-7.15,7.52c-.32.39-.64.8-1,1.22-.64.84-1.29,1.73-1.94,2.67-.32.46-.64,1-1,1.44l-1.14,1.84,0,.06h0c-10.31,16.37-28.54,39.34-50,40A72,72,0,0,0,49.3,461.19ZM162.7,604.9c0-1.84,0-3.63,0-5.36,33.17,29.64,86.76,86.93,109.14,111.14a10.16,10.16,0,0,0,7.48,3.32,10.62,10.62,0,0,0,3.36-.56,10.15,10.15,0,0,0,6.92-8.8l9.78-108.1-1.08-1.09c-1-1-24.44-24.49-71.43-45.18.62-.57,1.23-1.17,1.84-1.77,108.29,50.09,134,81.86,136.38,99.71,2.18,16.19.57,137.64.09,170.42Zm30.18,107,2.86,3.51,3.21,3.94.64-47.27,2.11,2.3v57.58c-2.21-2.57-4.29-5-6.27-7.34-3.59-4.24-6.82-8.12-9.7-11.73V657l8.31,9Zm-18.14-26.11a6.73,6.73,0,0,0,.63.79l1-39.69,2.71,2.95v54.37c-1.53-2.12-2.92-4.17-4.19-6.17-9-14.16-11.88-26-12.06-45.49-.06-7-.1-13.85-.13-20.51l4.55,4.94C166.06,670.74,172.63,682.79,174.74,685.76Zm-7.36-98L219.9,637s-20.81-28.4-24-39.7,25.79-4.69,25.79-4.69-18.21-12.36-37.58-20.24c.71-.14,1.42-.3,2.14-.46,23.84,5.89,49.19,23.09,68.94,39.2,8.65,7.06,16.23,13.91,22.14,19.51-2.17,24.65-4.74,53.6-5,55.92-.55,4.09,7.86,16,7.86,16l5.38-63.87c1.26,1.27,2.31,2.34,3.12,3.19L283,704a3.65,3.65,0,0,1-6.31,2.15c-4.64-5-10.64-11.49-17.51-18.82-27.81-29.67-70.07-73.77-96.46-96.62,0-7.44.07-13.19.1-16.58.82,0,1.64,0,2.49,0l2,0Zm65.34-17.37c1.52-5.1,20.68,3.78,20.68,3.78S233,562.4,218.9,556.94c.81-.6,1.61-1.22,2.41-1.86a293.19,293.19,0,0,1,47.37,25.53,193.68,193.68,0,0,1,23.84,18.44L289,637.44c-.91-.93-2-2-3.14-3.18l2.66-31.57-8.15-7.22s-1.21,13.91-2.7,30.86c-6.58-6.2-14.95-13.66-24.43-21.16-17.75-14.07-39.42-28.33-60.69-34.92,2.07-.63,4.15-1.34,6.23-2.16,22.08,7.38,41.9,20.95,41.9,20.95S231.21,575.53,232.72,570.43ZM132.22,548.1c18.62-29.9,26-69.47,26.33-71.43l.13-.78-.22-.75c0-.09-1.76-6.22-1.7-17.71a120.25,120.25,0,0,0,8.08,18.15C177.7,499.41,199,523.67,218.28,537c2.23,1.55,4.44,3,6.6,4.19-5.7,2.82-15.91,4.69-32.76-1.69-15.17-5.74-21.14-13-23.36-18.74h0c-.38-.74-.77-1.56-1.15-2.42-1-2.29-2-4.8-2.53-6.4-.36-1-.58-1.63-.58-1.63h0s-1.28.3-3.7,3.14c-.11.14-.23.26-.35.41-.48.59-1,1.28-1.56,2.08s-1.17,1.71-1.81,2.75c-.32.52-.65,1.07-1,1.66h0a102.41,102.41,0,0,1-21.67,26Q133.34,547.2,132.22,548.1Zm-89.9-74.39h.15l-.09.05Zm20.22,8.62a65.65,65.65,0,0,1-20.16-8.58S58.92,480.47,84,480.4c20.42,0,44.5-8.15,52.75-11.16l.28,0C109.64,483.08,84.13,487.6,62.54,482.33Zm63.91,77.82-.1.09h0Zm-.07.1c.71.22,17.46,5.16,44.17,2.73a160.46,160.46,0,0,0,43.8-10.82c-15.32,11.24-33.42,16.38-54.1,15.3A115.91,115.91,0,0,1,126.38,560.25ZM208.32,739.6V681.53l8.6,9.35V740l2.31,3.5,3,4.59V696.68l3,3.25L225,759c-2-2.4-4-4.68-5.92-6.91-3.55-4.13-6.91-8-10-11.64Zm23.52-32.51,7.41,8-1,51.56,2.13,2.74,5,6.45V721.83l2.91,3.16-.92,60.09c-2.43-2.78-4.87-5.6-7.32-8.43q-4.22-4.9-8.45-9.88Zm23,25,5.95,6.46-.85,54.08,2.69,3.72,3.74,5.16V744.6l2.45,2.65v61.9c-2.08-2.29-4.18-4.63-6.27-7-2.87-3.2-5.74-6.42-8.63-9.7Zm26.79,85.65,2.42,3.2,2.36,3.13,1.74-55.8,2.19,2.38v62q-3.18-3.4-6.42-6.92c-2.8-3-5.62-6.09-8.49-9.23v-62l7.74,8.4Zm15.32-39.9,6.37,6.92V840l2.51,2.82,3.37,3.8,1.36-54,1.2,1.29v61.35q-3-3.09-6.06-6.35-4.28-4.49-8.75-9.24ZM325.66,865l3.75,4.48V813.09l2.4,2.61.6,60.82c-2.2-2.23-4.51-4.59-6.91-7l-7.13-7.34v-61l4.42,4.81v55.64Zm-163-242.76c0-2.62,0-5.19,0-7.69L371.56,835l.13-8.11c.1-6.54,2.55-160.39,0-179.54-.84-6.26-3.83-12.87-8.9-19.81-17.69-24.16-60.95-52.34-129.24-84.08q.48-.54,1-1.11a16,16,0,0,0,2-2.36l1.38-1.74a183.36,183.36,0,0,0,30.72,17.35q11.67,5.26,22.24,10.5,15.6,7.73,28.67,15.27,4.17,2.42,8.07,4.8c31.78,19.42,49.6,37.24,49.6,50.6V855.18ZM339.09,883.28,338.5,823l6.54,7.1V883.6l3.49,4.08,3.12,3.64V837.26l2.52,2.73v58.3c-1.58-1.55-3.48-3.43-5.64-5.58C345.8,890,342.64,886.86,339.09,883.28Zm21.7,20v-56.1l7.7,8.37,1,44,2.48-1.94,1.75-1.36,1-34,2.41,2.63v35.49a21.57,21.57,0,0,1-5.18,2.92A14.35,14.35,0,0,1,360.79,903.28Zm12.84-289.1h0s-4-8.2-15.62-19.79c-9-9-22.49-20-42.21-30.75-45.22-24.74-68.93-32.24-68.93-32.24s16.13,7.86,40.55,25.65c-5.68-2.73-11.12-5.26-16.15-7.53q-32-14.44-49.8-34.47a28.59,28.59,0,0,0,15.9,1.8,26.52,26.52,0,0,0,12.27-5.58s-30.1,5.23-43.27-19.64a83.85,83.85,0,0,1-6.74-33.57c-4.11,4.81-5.11,10.94-4.74,16.76-2.07-1.12-4-2.29-5.86-3.48C175,462.19,168,451.74,168,451.74l-.06,0-4.41-2-.74-.34,0,0s.82,2.3,2.42,6.15c.92,2.2,2.11,4.9,3.54,8,9.7,20.79,31,58.42,62.64,69.85l1.22,1c-1,1.22-1.94,2.43-2.93,3.59a15.64,15.64,0,0,1-1.51,1.31c-27.46-14.77-64.52-60.28-70.8-92.48q.18-2.07.45-4.26h0c.54.41,1.06.81,1.57,1.18A11.12,11.12,0,0,0,162.8,445a11.88,11.88,0,0,0,8.51-1.61l-1-.53A78.11,78.11,0,0,1,146.8,422c-14.3-19.25-17.11-42.39-8.36-68.8-5.91,1.93-8.69,7.48-10,12.38a81.26,81.26,0,0,0,.21,32.14l-.14-.39c-3.57-9.93-6.23-22.16-7.82-36.35-5.71-50.8,2.71-119.8,27.17-174.25,8.15-18.15,18.09-34.68,29.89-48.38l5.83,8.73a97.52,97.52,0,0,0-15.81,21.46c-1.66,2.57-13.31,21.17-21.51,49.36-1.64,5.62-3.14,11.61-4.39,17.95-5.63,28.35-6.84,67.58,12.07,108.55a1.74,1.74,0,0,1-.1.19c-20.25-28.43-18.47-69.94-18.47-69.94s-.25.63-.62,1.84C132.68,283.35,126.89,309,141,348c.24.66.48,1.33.74,2,1.48,3.95,3.16,8,5.07,12.25A66.93,66.93,0,0,0,151,404.89c.62,1.34,1,2.07,1,2.07s.45-21.59,8.79-35.09a26.91,26.91,0,0,1,5.14-6.16,40.79,40.79,0,0,0,5.56,5.49A34.38,34.38,0,0,0,181.66,377C149.4,335.77,138.17,288.8,148.3,237.4c.66-3.35,1.4-6.61,2.19-9.77-.34,3.67-.58,7.38-.69,11.13-1.29,41.23,11.68,80.17,35.58,106.82a135.5,135.5,0,0,0,87.55,44.67,131.13,131.13,0,0,0,13.21.66c18.06,0,34.93-3.7,46.89-10.27a53,53,0,0,0,4.55-2.8L341,383c-6.24,5.72-27.89,23.09-58.84,21.4A78.34,78.34,0,0,1,270.87,403c7,7.27,17.24,8.27,25.11,7.68,23.68-2.66,40.48-14.85,47.76-21.17A69.23,69.23,0,0,1,342,403.31c-8.34,15.85-24.79,16.15-25.49,16.16h-3.3v7.92c-15.31,16.13-26,9.31-26,9.31a2.27,2.27,0,0,0,.11.29c.82,2.05,6.6,14.13,25.9,4.95v.27l1.49,1,.15.1c-10,8.2-19.55,10.26-25.89,5.42-6.57-5-8-16.09-3.16-25.22a9.78,9.78,0,0,0-8.34,5.36,11.57,11.57,0,0,0-.89,2.28c-.1.74-.16,1.47-.2,2.21-7.84,6.68-16.54,7.89-23.51,3.16-6-4.06-10.53-13.16-7.54-24.21a30.55,30.55,0,0,1,.94-3,12.26,12.26,0,0,0-7.42,8h0s0,0,0,0a28.44,28.44,0,0,0-1.9,9.54l-.71.3c-1.63.67-3.63,1.42-5.91,2.11a54.84,54.84,0,0,1-12.53,2.31,11.08,11.08,0,0,0,6.51-8.79,21.09,21.09,0,0,1-24.33.83c-6.56-4.38-9.34-12.05-8-21.51a38.67,38.67,0,0,1,1.19-5.55c-10.47,3.56-7.25,17.72-7,18.61a26.2,26.2,0,0,0,1.85,4.58,25,25,0,0,0,5,6.72c7.74,16.58,25.44,18.93,37.57,18.38,9.93-.13,16,6,19.33,10.87A24.08,24.08,0,0,0,256,468.85c-2.12,6.69-1.83,12.25-.16,16.85h0l0,.06a22.51,22.51,0,0,0,2.37,4.7c2.3,4,6.3,9.61,12,13.2a23.08,23.08,0,0,0,6.51,2.83c4.39,1.12,9.49.9,15.31-1.54a12.79,12.79,0,0,0,1.37-.58l.05,0h0c3.29-1.67,5.81-4.76,6.23-9.86a14,14,0,0,1-2.78,2.38c-5.19,3.39-12.75,3.6-19,.17-7.43-4-10.73-11.73-9.19-20.93a21.86,21.86,0,0,0,4.11.41l.76,0a21.94,21.94,0,0,0,4.94-.74c2.94-1.07,5.91-3.75,5.54-10.26l-.24.19c-6.18,5.1-14.07,5.57-20.21,1.16-4.78-3.42-8.94-10.59-6.69-20.23.09-.39.18-.79.29-1.2a22.73,22.73,0,0,0,4.94.55A26.8,26.8,0,0,0,277,441.16,22.12,22.12,0,0,0,285,454c.29.22.59.42.88.62h0a27.56,27.56,0,0,0,21,6.68c35.44,9.25,43.53,21.4,43.53,21.4s-2-10.15-17.4-19.27a73,73,0,0,1,16.45,8.92,199.87,199.87,0,0,1,23.3,27.84c1.69,2.48,3.33,5,4.88,7.58h5.68c1.56-2.6,3.21-5.13,4.92-7.62a198.62,198.62,0,0,1,23.27-27.8,72.93,72.93,0,0,1,16.44-8.92c-15.42,9.12-17.4,19.27-17.4,19.27s8.1-12.15,43.53-21.4a27.56,27.56,0,0,0,21-6.68h0c.3-.2.59-.4.88-.62a22.07,22.07,0,0,0,7.94-12.81A26.82,26.82,0,0,0,498.74,446a22.66,22.66,0,0,0,4.94-.55c.11.4.2.79.29,1.19,2.26,9.64-1.9,16.81-6.68,20.24-6.14,4.41-14,3.94-20.2-1.16l-.26-.19c-.37,6.51,2.6,9.19,5.54,10.26a21.86,21.86,0,0,0,4.91.74l.79,0a21.86,21.86,0,0,0,4.11-.41c1.55,9.2-1.75,16.88-9.19,20.93-6.28,3.43-13.85,3.22-19-.17a13.47,13.47,0,0,1-2.78-2.38c.41,5.1,2.93,8.19,6.23,9.86h0l0,0a14.78,14.78,0,0,0,1.37.58c5.82,2.44,10.92,2.66,15.31,1.54a23,23,0,0,0,6.54-2.85c5.72-3.59,9.7-9.19,12-13.18a23,23,0,0,0,2.37-4.7l0-.06h0c1.67-4.6,2-10.16-.15-16.85A24.22,24.22,0,0,0,511,455.74c3.27-4.84,9.39-11,19.32-10.87,12.14.55,29.83-1.8,37.58-18.38a25.34,25.34,0,0,0,5-6.67,25.7,25.7,0,0,0,1.87-4.63c.21-.89,3.43-15.05-7-18.61a40.7,40.7,0,0,1,1.17,5.47c1.36,9.49-1.42,17.19-8,21.59a21.1,21.1,0,0,1-24.34-.83,11.07,11.07,0,0,0,6.52,8.79,54.83,54.83,0,0,1-12.54-2.31c-2.28-.69-4.28-1.44-5.91-2.11l-.71-.3a28.31,28.31,0,0,0-1.89-9.53l0-.06h0a12.26,12.26,0,0,0-7.42-8,28.6,28.6,0,0,1,.93,2.9c3,11.08-1.54,20.21-7.53,24.27-7,4.73-15.67,3.52-23.5-3.16,0-.74-.11-1.47-.2-2.21a12,12,0,0,0-.9-2.27,9.77,9.77,0,0,0-8.34-5.37l0,.07c4.76,9.12,3.37,20.15-3.18,25.15-6.35,4.84-15.86,2.78-25.9-5.42l.16-.1,1.49-1v-.27c19.56,9.3,25.23-3.23,25.93-5l.08-.22s-10.71,6.82-26-9.31v-7.92h-3.31c-.69,0-17.15-.31-25.49-16.16a70,70,0,0,1-1.71-13.81c7.28,6.32,24.08,18.51,47.77,21.17,7.86.59,18.09-.41,25.1-7.68a78.43,78.43,0,0,1-11.34,1.42c-30.94,1.68-52.58-15.68-58.82-21.4l3.45-5.17c1.41,1,2.92,1.89,4.51,2.77,12,6.59,28.85,10.3,46.93,10.3a131.33,131.33,0,0,0,13.22-.66,135.5,135.5,0,0,0,87.54-44.67c23.91-26.65,36.88-65.59,35.59-106.82-.12-3.75-.36-7.46-.7-11.13.79,3.16,1.53,6.42,2.19,9.77,10.13,51.4-1.09,98.37-33.35,139.59a34.58,34.58,0,0,0,10.12-5.77,41,41,0,0,0,5.57-5.51,26.91,26.91,0,0,1,5.14,6.16c8.34,13.5,8.79,35.09,8.79,35.09s.4-.68,1-2a66.94,66.94,0,0,0,4.23-42.78q2.86-6.32,5.08-12.25c.25-.67.49-1.34.73-2,14.18-39.21,8.27-64.87,6.23-71.55-.35-1.14-.59-1.74-.59-1.74s1.78,41.51-18.47,69.94l-.1-.19c18.91-41,17.7-80.2,12.08-108.55-1.23-6.22-2.7-12.11-4.3-17.63-8.21-28.37-20-47.1-21.61-49.68a97.81,97.81,0,0,0-15.8-21.46l5.83-8.73c11.81,13.72,21.76,30.29,29.92,48.48,24.44,54.43,32.84,123.38,27.14,174.15-1.61,14.27-4.29,26.57-7.89,36.53,0,.07-.05.15-.07.21a81.46,81.46,0,0,0,.2-32.14c-1.32-4.9-4.1-10.45-10-12.38a.56.56,0,0,0,0,.12c8.7,26.35,5.88,49.46-8.39,68.68a78.3,78.3,0,0,1-23.49,20.8c-.64.36-1,.54-1,.55a11.87,11.87,0,0,0,8.49,1.61,11.16,11.16,0,0,0,3.51-1.38c.51-.37,1-.77,1.57-1.18h0c.18,1.46.33,2.88.46,4.26-6.29,32.2-43.35,77.71-70.81,92.48a15.64,15.64,0,0,1-1.51-1.31c-1-1.16-2-2.37-2.92-3.59l1.21-1c31.91-11.54,53.35-49.78,62.92-70.44,1.25-2.7,2.29-5.1,3.13-7.1,1.69-4,2.55-6.44,2.55-6.44l0,0-.79.36-4.42,2h0s-7,10.45-21.07,19.61c-1.83,1.19-3.78,2.36-5.86,3.48.37-5.82-.63-11.95-4.73-16.76a83.85,83.85,0,0,1-6.75,33.57c-13.16,24.87-43.27,19.64-43.27,19.64a26.63,26.63,0,0,0,12.25,5.58,28.62,28.62,0,0,0,15.93-1.8q-17.76,20-49.81,34.47c-5,2.27-10.47,4.8-16.14,7.53C497.89,539.27,514,531.41,514,531.41s-23.71,7.5-68.93,32.24c-19.77,10.82-33.31,21.85-42.29,30.82-11.54,11.55-15.54,19.72-15.54,19.72h0a54.24,54.24,0,0,0-6.82,10.1A53.75,53.75,0,0,0,373.63,614.18ZM602.36,476.67c.35,2,7.7,41.53,26.32,71.43-.77-.62-1.52-1.24-2.26-1.86a102.6,102.6,0,0,1-21.6-25.93h0a38,38,0,0,0-6.24-8.54,5.86,5.86,0,0,0-2.17-1.5s-.22.66-.59,1.68c-.58,1.59-1.51,4.08-2.52,6.35-.37.86-.76,1.68-1.15,2.42h0c-2.22,5.71-8.19,13-23.36,18.74-16.85,6.38-27,4.51-32.75,1.69,2.16-1.23,4.36-2.64,6.59-4.19,19.24-13.3,40.56-37.54,53.42-61.36a120.89,120.89,0,0,0,8.11-18.19c.05,11.49-1.68,17.62-1.71,17.71l-.22.75Zm-74.18,93.76c1.52,5.1-8,18.61-8,18.61s19.83-13.57,41.9-20.95c2.08.82,4.16,1.53,6.23,2.16-21.27,6.59-42.94,20.86-60.7,34.92-9.47,7.51-17.83,15-24.42,21.16-1.49-17-2.7-30.86-2.7-30.86l-8.15,7.22L475,634.26c-1.18,1.18-2.23,2.25-3.14,3.18l-3.48-38.39a194,194,0,0,1,23.81-18.41,291.85,291.85,0,0,1,47.4-25.56c.8.64,1.61,1.26,2.41,1.86-14.11,5.46-34.5,17.27-34.5,17.27S526.66,565.33,528.18,570.43ZM565,597.31c-3.17,11.3-24,39.7-24,39.7l52.53-49.21V574.19l2.05,0c.84,0,1.67,0,2.49,0,0,3.39.06,9.14.09,16.58-26.42,22.88-68.77,67.08-96.57,96.75-6.82,7.28-12.78,13.69-17.4,18.69a3.57,3.57,0,0,1-3.85,1,3.61,3.61,0,0,1-2.46-3.13l-5.63-62.22c.82-.85,1.86-1.92,3.12-3.19l5.38,63.87s8.41-11.86,7.86-16c-.31-2.32-2.88-31.27-5-55.92,5.89-5.59,13.46-12.43,22.09-19.48,19.76-16.12,45.12-33.34,69-39.23.71.16,1.42.32,2.13.46-19.36,7.88-37.57,20.24-37.57,20.24S568.16,586,565,597.31ZM559.2,731.93V674.35l2.11-2.3.65,47.27,3.18-3.91,2.88-3.54L566.86,666l8.31-9v55.86c-2.88,3.62-6.12,7.51-9.72,11.76Q562.5,728.1,559.2,731.93Zm22.59-27.75V649.81l2.71-2.95,1,39.69a6.71,6.71,0,0,0,.61-.76c2.08-2.9,8.71-14.91,7.48-48.84l4.55-4.94c0,6.66-.07,13.55-.13,20.51-.18,19.55-3,31.35-12.08,45.53C584.69,700,583.31,702.07,581.79,704.18ZM395.71,818.63c-.48-32.78-2.09-154.23.09-170.42,2.41-17.85,28.09-49.62,136.38-99.71.62.6,1.23,1.2,1.84,1.77-47,20.69-70.42,44.16-71.43,45.18l-1.08,1.09,9.78,108.1a10.17,10.17,0,0,0,6.92,8.8,10.66,10.66,0,0,0,3.36.56,10.14,10.14,0,0,0,7.48-3.32c22.38-24.21,76-81.5,109.14-111.14,0,1.73,0,3.52,0,5.36Zm4.4,84.65a14.33,14.33,0,0,1-11.2.07,21.85,21.85,0,0,1-5.15-2.91V865l2.42-2.63,1,34,1.72,1.34,2.51,2,1-44,7.7-8.37Zm21.7-20c-3.56,3.59-6.73,6.74-9.46,9.46l-5.62,5.55V840l2.52-2.73v54.06l3.1-3.61,3.52-4.11V830.07l6.53-7.1Zm-38.05-28.1V636.74c0-13.35,17.79-31.15,49.51-50.55q4.07-2.48,8.42-5c8.52-4.91,17.91-9.91,28.08-15q10.71-5.32,22.57-10.67a183,183,0,0,0,30.72-17.35l1.38,1.74a16.73,16.73,0,0,0,2,2.36q.48.57,1,1.11c-68.38,31.79-111.67,60-129.31,84.18-5,6.9-8,13.48-8.83,19.71-2.57,19.15-.13,173,0,179.54l.13,8.11L598.21,614.52c0,2.5,0,5.07,0,7.69Zm101.72-38.74q-4.31,4.71-8.51,9.26c-2.15,2.33-4.29,4.63-6.39,6.89v-62l2.19-2.38,1.73,55.8,2.34-3.1,2.44-3.23-1.53-54.88,7.73-8.4Zm-42.94,45.69-7.16,7.37c-2.4,2.45-4.69,4.8-6.89,7l.6-60.82,2.4-2.61v56.36l3.72-4.45,2.9-3.46V805.9l4.43-4.81Zm12.65-13.2c-2.05,2.15-4.07,4.27-6,6.32V793.9l1.2-1.29,1.36,54,3.35-3.77,2.53-2.85v-55.3l6.37-6.92v61.84Q459.48,844.43,455.19,848.93Zm43.15-46.72c-2.09,2.33-4.18,4.66-6.24,6.94v-61.9l2.44-2.65v56.89l3.72-5.13,2.71-3.75-.85-54.08,5.95-6.46.93,60.41C504.09,795.77,501.21,799,498.34,802.21Zm22.45-25.53c-2.43,2.82-4.86,5.63-7.29,8.4L512.58,725l2.92-3.16v54.06l5-6.42,2.16-2.77-1-51.56,7.41-8,.22,59.68Q525,771.77,520.79,776.68Zm31-36.2q-4.71,5.44-10.06,11.67c-1.91,2.22-3.86,4.49-5.89,6.88l-.22-59.1,3-3.25v51.45l3-4.55L544,740V690.88l8.59-9.35V739.6Zm48.83-173c-20.68,1.08-38.78-4.06-54.09-15.3A160.37,160.37,0,0,0,590.35,563c26.72,2.43,43.46-2.51,44.17-2.73A115.91,115.91,0,0,1,600.65,567.46Zm33.93-7.23h0l-.1-.09Zm63.78-77.9c-21.59,5.27-47.1.75-74.45-13.06l.27,0c8.25,3,32.33,11.11,52.75,11.16,25.05.07,41.54-6.63,41.59-6.65A65.54,65.54,0,0,1,698.36,482.33Zm20.16-8.58-.08-.05h.15Zm.71-6.67c-21.45-.63-39.68-23.6-50-40h0l0-.06c-.4-.62-.78-1.24-1.14-1.84s-.64-1-1-1.44c-.64-.94-1.3-1.83-1.94-2.67-.32-.42-.65-.83-1-1.22a59.68,59.68,0,0,0-7.16-7.52h0a13.84,13.84,0,0,0-.29,4c0,.54,0,1.15.08,1.83.09,1.58.28,3.54.62,6v0c1.37,6.91,1.71,16-3.08,23.6C648,457.83,634,463,612.88,463.26L610.71,462q.06-1.59.06-3.33a47.36,47.36,0,0,0,17-6.71c14.08-9.35,16.54-24.48,16.71-33a40.14,40.14,0,0,0-.3-6.29,33.55,33.55,0,0,1-5.62,8.11c-4.92,5.44-13.47,12-27.21,14.5a83.28,83.28,0,0,0,7.9-9.07c1.35-1.8,2.68-3.75,4-5.86,10.1-11,17.22-31.5,20.3-59A282.82,282.82,0,0,0,645.19,332a385.22,385.22,0,0,0-10.35-89.93c-7.41-31.23-22-74.73-49.77-106.58l.35-.53c58.35,44.54,68.86,199.91,68.86,199.91s1.46-20.23.47-49.12c-1.73-50.51-11-127.5-48.58-169.18,39.11,31,46.86,103.78,54.38,174.37,4,37.77,8.19,76.79,17.19,108.74.15.52.28,1.06.43,1.58q1.41,4.88,3,9.43-1.27-2.07-2.42-4a141.33,141.33,0,0,1-8.65-16.86c-3.44-8.16-3.76-12-3.76-12s-11.68,40.47,45.32,83.37h0A73,73,0,0,0,719.23,467.08Zm9.12-114c-17.55,9.73-35.39,10.73-53.06,3l-.54-3.44s41,12.73,67.68-9.53A82.8,82.8,0,0,1,728.35,353.07Zm14.1-9.94-.16-.06.26,0Zm-13.22-9.47C714.76,326,706,304.82,701.74,291.27c-.29-1-.61-1.95-1-2.82-2.39-6.05-5.71-8.48-5.71-8.48h0a30.94,30.94,0,0,0-.8,3.92c-.1.64-.19,1.35-.28,2.14a72.93,72.93,0,0,0-.43,9v.07c.23,9.06-.91,20.5-6.7,28.6a23.36,23.36,0,0,1-4.26,4.54c-9.78-108.73-22-171.33-38.45-196.81a138.13,138.13,0,0,0-10.48-14.25C675.49,160,683,235.28,683,235.28a245.86,245.86,0,0,0-5.11-67.17c-6.83-31.51-21.64-67.46-53.11-92.11l.17-.26c52.47,33.51,62.76,95,71.85,149.44,3.9,23.31,7.7,46,14.59,65.4a171.6,171.6,0,0,1-10.13-16.85c-.13-.25-.27-.5-.39-.75-.32-.6-.61-1.19-.9-1.77a84.31,84.31,0,0,1-5.72-13.87,80.86,80.86,0,0,0,3.08,16.26,98.3,98.3,0,0,0,4.24,12,92.67,92.67,0,0,0,25.33,34.63h0a67.35,67.35,0,0,0,17.6,16A23.58,23.58,0,0,1,729.23,333.66Z"/><polygon class="cls-4" points="377.14 321.86 327.17 321.86 327.17 333.3 377.14 333.3 383.76 333.3 433.73 333.3 433.73 321.86 383.76 321.86 377.14 321.86"/><path class="cls-4" d="M381.55,262.25c-51.09-2.2-90.69-40.61-90.69-40.61s40,48.39,90.69,48.52,86.45-44,86.45-44S428.23,264.26,381.55,262.25Z"/></g></g></svg>