<svg xmlns="http://www.w3.org/2000/svg" xmlns:xlink="http://www.w3.org/1999/xlink" viewBox="0 0 726 214"><defs><style>.cls-1{fill:url(#linear-gradient);}.cls-2{fill:#fff;}</style><linearGradient id="linear-gradient" x1="1072.22" y1="150.3" x2="1265.46" y2="150.3" gradientTransform="matrix(-1, 0, 0, 1, 1265.48, 0)" gradientUnits="userSpaceOnUse"><stop offset="0" stop-color="#fff"/><stop offset="1" stop-color="#fff" stop-opacity="0.5"/></linearGradient></defs><title>Logo White</title><g id="Logo_White" data-name="Logo White"><path class="cls-1" d="M0,214.29H100.76a92.6,92.6,0,0,0,92.5-92.5V86.31H138.85v35.48a38.14,38.14,0,0,1-38.09,38.09H0Z"/><path class="cls-2" d="M165.89,75.45H92.51a38.1,38.1,0,0,0-38.09,38.09v46.34A54.41,54.41,0,0,1,0,214.29H0V113.54A92.51,92.51,0,0,1,92.51,21h96A72.84,72.84,0,0,0,240-.29h0V8.38a67.09,67.09,0,0,1-67.1,67.08Z"/><circle class="cls-2" cx="96.64" cy="117.67" r="29.02"/><path class="cls-2" d="M292.09,64.77V88.62h16.59v19H292.09V156q0,5.39,2.07,7.71c1.37,1.56,4,2.33,7.89,2.33a41.35,41.35,0,0,0,7.62-.62v19.63A53.47,53.47,0,0,1,294,187.41q-27.25,0-27.79-27.52V107.63H252v-19h14.17V64.77Z"/><path class="cls-2" d="M377.62,112.92a70.23,70.23,0,0,0-9.32-.72q-14.71,0-19.28,10v63.47H323.11v-97h24.48l.71,11.57q7.8-13.36,21.61-13.36A27.38,27.38,0,0,1,378,88Z"/><path class="cls-2" d="M389.9,63.52a12.76,12.76,0,0,1,3.9-9.59q3.9-3.76,10.62-3.77T415,53.93A12.69,12.69,0,0,1,419,63.52a12.71,12.71,0,0,1-4,9.68Q411,77,404.42,77T393.89,73.2A12.71,12.71,0,0,1,389.9,63.52Zm27.52,122.1h-26v-97h26Z"/><path class="cls-2" d="M434.72,136.4q0-22.68,10.18-36.12t27.83-13.45a29.7,29.7,0,0,1,23.4,10.58V47.92h26v137.7h-23.4l-1.25-10.31q-9.69,12.1-24.93,12.1-17.12,0-27.47-13.49T434.72,136.4Zm25.91,1.93q0,13.65,4.75,20.92t13.81,7.27q12,0,16.94-10.14V118q-4.85-10.14-16.76-10.15Q460.62,107.89,460.63,138.33Z"/><path class="cls-2" d="M586.85,187.41q-21.33,0-34.73-13.09t-13.41-34.87v-2.51a58.66,58.66,0,0,1,5.65-26.13,41.47,41.47,0,0,1,16-17.75A45,45,0,0,1,584,86.83q19.9,0,31.34,12.55T626.75,135v10.58H565a24.12,24.12,0,0,0,7.57,15.24q6.33,5.73,16,5.73,15,0,23.4-10.84l12.72,14.25a38.78,38.78,0,0,1-15.77,12.86A51.78,51.78,0,0,1,586.85,187.41Zm-3-79.69a16.19,16.19,0,0,0-12.51,5.22q-4.8,5.22-6.14,15h36v-2.08q-.18-8.64-4.67-13.37C593.64,109.29,589.39,107.72,583.9,107.72Z"/><path class="cls-2" d="M686.09,187.41q-21.33,0-34.73-13.09T638,139.45v-2.51a58.66,58.66,0,0,1,5.65-26.13,41.47,41.47,0,0,1,16-17.75,45,45,0,0,1,23.62-6.23q19.9,0,31.34,12.55T726,135v10.58H664.22a24.12,24.12,0,0,0,7.57,15.24q6.33,5.73,16,5.73,15,0,23.39-10.84l12.73,14.25a38.78,38.78,0,0,1-15.77,12.86A51.78,51.78,0,0,1,686.09,187.41Zm-3-79.69a16.19,16.19,0,0,0-12.51,5.22q-4.8,5.22-6.14,15h36v-2.08q-.18-8.64-4.67-13.37C692.88,109.29,688.63,107.72,683.14,107.72Z"/></g></svg>